<svg width="1920" height="1080" viewBox="0 0 1920 1080" fill="none"
    xmlns="http://www.w3.org/2000/svg">
    <rect width="1920" height="1080" fill="#07151C" />
    <path
        d="M1395.5 912.5L1181 792L1524 786.5L1556.5 608.5L1334.5 502.5L1676.5 497L1716.5 301.5L1138.5 75.5L1264 3L1829 207.5L1711 728.5L1372.5 1076.5L1395.5 912.5Z"
        fill="#F8F1E6" />
    <path
        d="M200.688 449.125H185.938V519.188H200.688V491.125H231.75V510.812C231.75 512.479 231.646 514.271 231.438 516.188C231.271 518.104 230.771 520.021 229.938 521.938C229.146 523.812 227.938 525.625 226.312 527.375C224.688 529.125 222.438 530.667 219.562 532C216.729 533.333 213.167 534.396 208.875 535.188C204.625 536.021 199.438 536.438 193.312 536.438C187.229 536.438 182.062 536.021 177.812 535.188C173.562 534.396 170 533.333 167.125 532C164.292 530.667 162.062 529.125 160.438 527.375C158.812 525.625 157.583 523.812 156.75 521.938C155.917 520.021 155.396 518.104 155.188 516.188C154.979 514.271 154.875 512.479 154.875 510.812V457.312C154.875 455.646 154.979 453.875 155.188 452C155.396 450.083 155.896 448.188 156.688 446.312C157.521 444.438 158.75 442.646 160.375 440.938C162.042 439.188 164.292 437.667 167.125 436.375C169.958 435.042 173.479 433.979 177.688 433.188C181.938 432.396 187.083 432 193.125 432C199.292 432 204.521 432.396 208.812 433.188C213.104 433.979 216.688 435.042 219.562 436.375C222.438 437.667 224.688 439.188 226.312 440.938C227.938 442.646 229.146 444.438 229.938 446.312C230.771 448.188 231.271 450.083 231.438 452C231.646 453.875 231.75 455.646 231.75 457.312V477.188H200.688V449.125ZM252.63 534V434.312H283.692V519.188H302.942V534H252.63ZM351.197 434.312V534H320.135V434.312H351.197ZM431.51 534H408.76L395.947 476.75V534H372.197V434.312H410.572L420.135 495.125L429.697 434.312H468.072V534H444.322V476.75L431.51 534ZM565.805 505.25C565.805 507.875 565.742 510.417 565.617 512.875C565.534 515.333 565.159 517.625 564.492 519.75C563.867 521.875 562.847 523.812 561.43 525.562C560.013 527.312 558.013 528.812 555.43 530.062C552.847 531.312 549.555 532.292 545.555 533C541.555 533.667 536.638 534 530.805 534H488.93V434.312H531.367C536.784 434.312 541.347 434.667 545.055 435.375C548.763 436.083 551.805 437.062 554.18 438.312C556.597 439.562 558.451 441.021 559.742 442.688C561.034 444.354 561.972 446.125 562.555 448C563.18 449.875 563.534 451.833 563.617 453.875C563.742 455.875 563.805 457.833 563.805 459.75C563.805 462.458 563.555 464.792 563.055 466.75C562.555 468.667 561.909 470.312 561.117 471.688C560.326 473.021 559.409 474.125 558.367 475C557.326 475.875 556.284 476.604 555.242 477.188C552.742 478.562 549.909 479.375 546.742 479.625C550.409 479.875 553.659 480.771 556.492 482.312C557.742 482.979 558.93 483.833 560.055 484.875C561.18 485.875 562.159 487.25 562.992 489C563.867 490.75 564.555 492.938 565.055 495.562C565.555 498.146 565.805 501.375 565.805 505.25ZM519.992 519.188H534.742V487.125H519.992V519.188ZM519.992 472.688H534.742V449.125H519.992V472.688ZM613.438 434.312V534H582.375V434.312H613.438ZM682.723 534L658.66 489.562V534H632.91V434.312H661.285L686.785 481.875V434.312H711.723V534H682.723ZM807.295 491.125V534H780.107L777.107 527.5C776.274 529.167 775.128 530.646 773.67 531.938C772.42 533.021 770.732 534.021 768.607 534.938C766.524 535.854 763.878 536.312 760.67 536.312C756.712 536.312 753.212 535.938 750.17 535.188C747.17 534.438 744.545 533.417 742.295 532.125C740.045 530.833 738.149 529.354 736.607 527.688C735.107 526.021 733.899 524.271 732.982 522.438C732.066 520.604 731.399 518.771 730.982 516.938C730.607 515.062 730.42 513.292 730.42 511.625V457.312C730.42 455.521 730.524 453.646 730.732 451.688C730.982 449.729 731.503 447.812 732.295 445.938C733.128 444.062 734.357 442.292 735.982 440.625C737.649 438.917 739.878 437.438 742.67 436.188C745.503 434.896 749.024 433.875 753.232 433.125C757.482 432.375 762.607 432 768.607 432C774.482 432 779.503 432.396 783.67 433.188C787.878 433.979 791.399 435.042 794.232 436.375C797.107 437.667 799.399 439.188 801.107 440.938C802.857 442.646 804.17 444.438 805.045 446.312C805.962 448.188 806.566 450.083 806.857 452C807.149 453.875 807.295 455.646 807.295 457.312V477.188H776.232V449.125H761.482V519.188H781.607V505.562H772.607V491.125H807.295ZM200.688 577.125H185.938V647.188H200.688V619.125H231.75V638.812C231.75 640.479 231.646 642.271 231.438 644.188C231.271 646.104 230.771 648.021 229.938 649.938C229.146 651.812 227.938 653.625 226.312 655.375C224.688 657.125 222.438 658.667 219.562 660C216.729 661.333 213.167 662.396 208.875 663.188C204.625 664.021 199.438 664.438 193.312 664.438C187.229 664.438 182.062 664.021 177.812 663.188C173.562 662.396 170 661.333 167.125 660C164.292 658.667 162.062 657.125 160.438 655.375C158.812 653.625 157.583 651.812 156.75 649.938C155.917 648.021 155.396 646.104 155.188 644.188C154.979 642.271 154.875 640.479 154.875 638.812V585.312C154.875 583.646 154.979 581.875 155.188 580C155.396 578.083 155.896 576.188 156.688 574.312C157.521 572.438 158.75 570.646 160.375 568.938C162.042 567.188 164.292 565.667 167.125 564.375C169.958 563.042 173.479 561.979 177.688 561.188C181.938 560.396 187.083 560 193.125 560C199.292 560 204.521 560.396 208.812 561.188C213.104 561.979 216.688 563.042 219.562 564.375C222.438 565.667 224.688 567.188 226.312 568.938C227.938 570.646 229.146 572.438 229.938 574.312C230.771 576.188 231.271 578.083 231.438 580C231.646 581.875 231.75 583.646 231.75 585.312V605.188H200.688V577.125ZM286.375 637.438L283.812 662H251.625L267.625 562.312H321.25L337.25 662H304.938L302.5 637.438H286.375ZM288 626.25H300.875L294.375 576.938L288 626.25ZM415.125 662H392.375L379.562 604.75V662H355.812V562.312H394.188L403.75 623.125L413.312 562.312H451.688V662H427.938V604.75L415.125 662ZM475.105 562.312H516.98C522.813 562.312 527.709 562.688 531.668 563.438C535.668 564.188 538.959 565.188 541.543 566.438C544.168 567.688 546.168 569.146 547.543 570.812C548.959 572.438 550.001 574.167 550.668 576C551.334 577.792 551.709 579.625 551.793 581.5C551.918 583.333 551.98 585.083 551.98 586.75V610.562C551.98 612.229 551.918 614 551.793 615.875C551.709 617.708 551.334 619.521 550.668 621.312C550.001 623.104 548.959 624.833 547.543 626.5C546.168 628.167 544.168 629.625 541.543 630.875C538.959 632.125 535.668 633.125 531.668 633.875C527.709 634.625 522.813 635 516.98 635H506.168V662H475.105V562.312ZM506.168 621.375H520.918V577.125H506.168V621.375ZM598.707 647.188H613.457V562.312H644.52V638.812C644.52 640.479 644.416 642.271 644.207 644.188C643.999 646.104 643.478 648.021 642.645 649.938C641.812 651.812 640.562 653.625 638.895 655.375C637.228 657.125 634.957 658.667 632.082 660C629.207 661.333 625.624 662.396 621.332 663.188C617.041 664.021 611.832 664.438 605.707 664.438C599.666 664.438 594.52 664.021 590.27 663.188C586.02 662.396 582.478 661.333 579.645 660C576.853 658.667 574.645 657.125 573.02 655.375C571.437 653.625 570.228 651.812 569.395 649.938C568.603 648.021 568.103 646.104 567.895 644.188C567.728 642.271 567.645 640.479 567.645 638.812V562.312H598.707V647.188ZM695.932 591.5C695.932 592.833 696.578 593.896 697.87 594.688C699.203 595.479 700.932 596.188 703.057 596.812C705.224 597.396 707.682 597.979 710.432 598.562C713.182 599.146 715.974 599.896 718.807 600.812C721.682 601.688 724.495 602.833 727.245 604.25C729.995 605.625 732.432 607.438 734.557 609.688C736.724 611.896 738.453 614.625 739.745 617.875C741.078 621.125 741.745 625.042 741.745 629.625C741.745 632.917 741.662 636.062 741.495 639.062C741.328 642.062 740.87 644.854 740.12 647.438C739.37 649.979 738.203 652.292 736.62 654.375C735.037 656.458 732.807 658.25 729.932 659.75C727.099 661.208 723.516 662.333 719.182 663.125C714.849 663.917 709.557 664.312 703.307 664.312C697.766 664.312 692.912 664.021 688.745 663.438C684.62 662.896 681.078 662.042 678.12 660.875C675.162 659.708 672.724 658.229 670.807 656.438C668.932 654.604 667.432 652.458 666.307 650C665.224 647.542 664.474 644.729 664.057 641.562C663.641 638.396 663.432 634.875 663.432 631H695.932V647.188H710.682V628.688C710.682 627.479 710.016 626.479 708.682 625.688C707.391 624.896 705.662 624.188 703.495 623.562C701.37 622.896 698.932 622.25 696.182 621.625C693.432 621 690.62 620.25 687.745 619.375C684.912 618.5 682.12 617.438 679.37 616.188C676.62 614.938 674.162 613.396 671.995 611.562C669.87 609.688 668.141 607.458 666.807 604.875C665.516 602.25 664.87 599.125 664.87 595.5C664.87 591 665.099 587 665.557 583.5C666.016 579.958 666.807 576.875 667.932 574.25C669.057 571.625 670.578 569.417 672.495 567.625C674.412 565.792 676.807 564.312 679.682 563.188C682.599 562.062 686.037 561.25 689.995 560.75C693.995 560.25 698.641 560 703.932 560C711.516 560 717.745 560.5 722.62 561.5C727.537 562.5 731.412 564.167 734.245 566.5C737.078 568.833 739.037 571.896 740.12 575.688C741.203 579.479 741.745 584.125 741.745 589.625H710.682V577.125H695.932V591.5Z"
        fill="#F8F1E6" />
    <path
        d="M152.496 784V749.632H156.768L163.464 777.544H163.56L170.232 749.632H174.504V784H170.904V766.288L171.096 760.816H171L165.096 784H161.88L156 760.84H155.88L156.096 766.312V784H152.496ZM192.816 784.504C190.016 784.504 187.776 783.592 186.096 781.768C184.432 779.944 183.6 777.472 183.6 774.352V759.208C183.6 756.136 184.432 753.688 186.096 751.864C187.776 750.04 190.024 749.128 192.84 749.128C195.64 749.128 197.88 750.04 199.56 751.864C201.24 753.672 202.08 756.12 202.08 759.208V774.352C202.08 777.472 201.232 779.944 199.536 781.768C197.856 783.592 195.616 784.504 192.816 784.504ZM192.84 780.976C194.472 780.976 195.784 780.424 196.776 779.32C197.768 778.2 198.264 776.712 198.264 774.856V758.68C198.264 756.872 197.76 755.416 196.752 754.312C195.744 753.208 194.44 752.656 192.84 752.656C191.208 752.656 189.888 753.208 188.88 754.312C187.888 755.416 187.392 756.872 187.392 758.68V774.856C187.392 776.712 187.888 778.2 188.88 779.32C189.872 780.424 191.192 780.976 192.84 780.976ZM211.174 784V749.632H218.71C220.63 749.632 222.222 750.248 223.486 751.48C224.766 752.696 225.406 754.2 225.406 755.992V761.032C225.406 762.296 225.022 763.4 224.254 764.344C223.502 765.288 222.63 765.872 221.638 766.096V766.216C222.95 766.472 224.054 767.136 224.95 768.208C225.846 769.264 226.294 770.52 226.294 771.976V776.368C226.294 778.736 225.598 780.6 224.206 781.96C222.83 783.32 221.134 784 219.118 784H211.174ZM214.894 780.472H218.734C219.854 780.472 220.758 780.088 221.446 779.32C222.134 778.552 222.478 777.568 222.478 776.368V771.976C222.478 770.808 222.15 769.88 221.494 769.192C220.838 768.504 219.958 768.16 218.854 768.16H213.43V764.68H218.326C219.35 764.68 220.158 764.344 220.75 763.672C221.358 762.984 221.662 762.064 221.662 760.912V756.568C221.662 755.544 221.35 754.72 220.726 754.096C220.102 753.472 219.31 753.16 218.35 753.16H214.894V780.472ZM234.865 784V749.632H238.585V784H234.865ZM248.383 784V749.632H252.103V780.472H260.215V784H248.383ZM267.902 784V749.632H271.622V784H267.902ZM284.493 784V751.624H288.237V784H284.493ZM279.237 753.16V749.632H293.493V753.16H279.237ZM305.534 770.608L299.006 749.632H303.014L306.758 762.808L307.334 765.304H307.43L307.958 762.832L311.678 749.632H315.542L309.062 770.584L305.534 770.608ZM305.438 784V768.448H309.158V784H305.438ZM347.228 784.528L337.196 762.88C336.62 761.568 336.196 760.432 335.924 759.472C335.668 758.496 335.54 757.56 335.54 756.664V755.104C335.54 753.312 336.044 751.872 337.052 750.784C338.076 749.68 339.492 749.128 341.3 749.128C342.388 749.128 343.292 749.352 344.012 749.8C344.748 750.248 345.34 750.904 345.788 751.768C346.236 752.616 346.532 753.472 346.676 754.336C346.836 755.2 346.916 755.632 346.916 755.632L343.556 756.736C343.556 756.736 343.508 756.464 343.412 755.92C343.316 755.36 343.172 754.832 342.98 754.336C342.804 753.824 342.58 753.448 342.308 753.208C342.052 752.968 341.708 752.848 341.276 752.848C340.636 752.848 340.132 753.072 339.764 753.52C339.412 753.952 339.236 754.576 339.236 755.392V756.352C339.236 757.168 339.348 758 339.572 758.848C339.796 759.696 340.076 760.512 340.412 761.296L350.444 782.992L347.228 784.528ZM341.108 784.528C338.644 784.528 336.7 783.808 335.276 782.368C333.868 780.912 333.164 778.84 333.164 776.152V772.48C333.164 770.288 333.628 768.352 334.556 766.672C335.5 764.976 336.86 763.632 338.636 762.64L340.268 766.36C339.196 766.888 338.372 767.608 337.796 768.52C337.236 769.416 336.956 770.816 336.956 772.72V775.888C336.956 777.616 337.332 778.904 338.084 779.752C338.852 780.584 339.94 781 341.348 781C342.516 781 343.516 780.608 344.348 779.824C345.18 779.024 345.86 777.92 346.388 776.512C346.916 775.088 347.284 773.528 347.492 771.832C347.716 770.12 347.828 769.264 347.828 769.264L351.116 770.296C351.116 770.296 350.972 771.296 350.684 773.296C350.396 775.28 349.82 777.144 348.956 778.888C348.092 780.632 346.996 782.008 345.668 783.016C344.34 784.024 342.82 784.528 341.108 784.528ZM368.697 784L375.417 749.632H379.929L386.529 784H382.689L378.105 758.896L377.673 756.232H377.553L377.121 758.896L372.465 784H368.697ZM372.273 774.88L372.945 771.544H382.353L383.001 774.88H372.273ZM401.088 784.504C398.368 784.504 396.24 783.624 394.704 781.864C393.168 780.104 392.4 777.648 392.4 774.496V759.112C392.4 755.96 393.192 753.512 394.776 751.768C396.376 750.008 398.552 749.128 401.304 749.128C402.792 749.128 404.064 749.408 405.12 749.968C406.192 750.512 407.04 751.24 407.664 752.152C408.288 753.064 408.728 753.944 408.984 754.792C409.24 755.64 409.368 756.096 409.368 756.16C409.368 756.208 409.368 756.232 409.368 756.232L406.032 757.576C406.032 757.576 405.928 757.256 405.72 756.616C405.512 755.976 405.24 755.352 404.904 754.744C404.568 754.136 404.096 753.64 403.488 753.256C402.896 752.872 402.176 752.68 401.328 752.68C399.792 752.68 398.552 753.208 397.608 754.264C396.664 755.304 396.192 756.752 396.192 758.608V775.072C396.192 776.864 396.656 778.296 397.584 779.368C398.512 780.424 399.744 780.952 401.28 780.952C402.16 780.952 402.912 780.728 403.536 780.28C404.176 779.832 404.704 779.248 405.12 778.528C405.536 777.808 405.832 777.064 406.008 776.296C406.184 775.512 406.272 775.12 406.272 775.12L409.608 776.488C409.608 776.488 409.464 777.008 409.176 778.048C408.904 779.072 408.44 780.088 407.784 781.096C407.128 782.104 406.24 782.928 405.12 783.568C404.016 784.192 402.672 784.504 401.088 784.504ZM425.294 784.504C422.574 784.504 420.446 783.624 418.91 781.864C417.374 780.104 416.606 777.648 416.606 774.496V759.112C416.606 755.96 417.398 753.512 418.982 751.768C420.582 750.008 422.758 749.128 425.51 749.128C426.998 749.128 428.27 749.408 429.326 749.968C430.398 750.512 431.246 751.24 431.87 752.152C432.494 753.064 432.934 753.944 433.19 754.792C433.446 755.64 433.574 756.096 433.574 756.16C433.574 756.208 433.574 756.232 433.574 756.232L430.238 757.576C430.238 757.576 430.134 757.256 429.926 756.616C429.718 755.976 429.446 755.352 429.11 754.744C428.774 754.136 428.302 753.64 427.694 753.256C427.102 752.872 426.382 752.68 425.534 752.68C423.998 752.68 422.758 753.208 421.814 754.264C420.87 755.304 420.398 756.752 420.398 758.608V775.072C420.398 776.864 420.862 778.296 421.79 779.368C422.718 780.424 423.95 780.952 425.486 780.952C426.366 780.952 427.118 780.728 427.742 780.28C428.382 779.832 428.91 779.248 429.326 778.528C429.742 777.808 430.038 777.064 430.214 776.296C430.39 775.512 430.478 775.12 430.478 775.12L433.814 776.488C433.814 776.488 433.67 777.008 433.382 778.048C433.11 779.072 432.646 780.088 431.99 781.096C431.334 782.104 430.446 782.928 429.326 783.568C428.222 784.192 426.878 784.504 425.294 784.504ZM441.743 784V749.632H454.751V753.16H445.463V780.472H454.823V784H441.743ZM443.711 768.232V764.776H453.479V768.232H443.711ZM468.85 784.504C467.378 784.504 466.13 784.184 465.106 783.544C464.082 782.904 463.29 782.04 462.73 780.952C462.17 779.848 461.802 778.688 461.626 777.472C461.45 776.24 461.362 775.624 461.362 775.624L465.034 774.496C465.034 774.496 465.106 775.024 465.25 776.08C465.394 777.136 465.618 778.016 465.922 778.72C466.226 779.408 466.634 779.96 467.146 780.376C467.674 780.792 468.282 781 468.97 781C470.01 781 470.826 780.696 471.418 780.088C472.026 779.464 472.33 778.592 472.33 777.472V774.976C472.33 773.392 472.018 772.096 471.394 771.088C470.786 770.08 469.474 768.608 467.458 766.672C465.074 764.448 463.57 762.704 462.946 761.44C462.322 760.16 462.01 758.856 462.01 757.528V755.872C462.01 753.92 462.642 752.312 463.906 751.048C465.17 749.768 466.818 749.128 468.85 749.128C470.162 749.128 471.29 749.392 472.234 749.92C473.194 750.448 473.938 751.208 474.466 752.2C475.01 753.176 475.362 754.2 475.522 755.272C475.682 756.328 475.762 756.856 475.762 756.856L472.162 757.984C472.162 757.984 472.106 757.6 471.994 756.832C471.898 756.064 471.706 755.336 471.418 754.648C471.146 753.96 470.794 753.464 470.362 753.16C469.93 752.856 469.41 752.704 468.802 752.704C467.89 752.704 467.162 752.968 466.618 753.496C466.074 754.008 465.802 754.72 465.802 755.632V757.048C465.802 758.328 466.106 759.456 466.714 760.432C467.322 761.408 468.626 762.76 470.626 764.488C472.69 766.456 474.122 768.176 474.922 769.648C475.722 771.12 476.122 772.688 476.122 774.352V776.68C476.122 779.224 475.45 781.168 474.106 782.512C472.778 783.84 471.026 784.504 468.85 784.504ZM490.197 784.504C488.725 784.504 487.477 784.184 486.453 783.544C485.429 782.904 484.637 782.04 484.077 780.952C483.517 779.848 483.149 778.688 482.973 777.472C482.797 776.24 482.709 775.624 482.709 775.624L486.381 774.496C486.381 774.496 486.453 775.024 486.597 776.08C486.741 777.136 486.965 778.016 487.269 778.72C487.573 779.408 487.981 779.96 488.493 780.376C489.021 780.792 489.629 781 490.317 781C491.357 781 492.173 780.696 492.765 780.088C493.373 779.464 493.677 778.592 493.677 777.472V774.976C493.677 773.392 493.365 772.096 492.741 771.088C492.133 770.08 490.821 768.608 488.805 766.672C486.421 764.448 484.917 762.704 484.293 761.44C483.669 760.16 483.357 758.856 483.357 757.528V755.872C483.357 753.92 483.989 752.312 485.253 751.048C486.517 749.768 488.165 749.128 490.197 749.128C491.509 749.128 492.637 749.392 493.581 749.92C494.541 750.448 495.285 751.208 495.813 752.2C496.357 753.176 496.709 754.2 496.869 755.272C497.029 756.328 497.109 756.856 497.109 756.856L493.509 757.984C493.509 757.984 493.453 757.6 493.341 756.832C493.245 756.064 493.053 755.336 492.765 754.648C492.493 753.96 492.141 753.464 491.709 753.16C491.277 752.856 490.757 752.704 490.149 752.704C489.237 752.704 488.509 752.968 487.965 753.496C487.421 754.008 487.149 754.72 487.149 755.632V757.048C487.149 758.328 487.453 759.456 488.061 760.432C488.669 761.408 489.973 762.76 491.973 764.488C494.037 766.456 495.469 768.176 496.269 769.648C497.069 771.12 497.469 772.688 497.469 774.352V776.68C497.469 779.224 496.797 781.168 495.453 782.512C494.125 783.84 492.373 784.504 490.197 784.504ZM505.784 784V749.632H509.504V784H505.784ZM519.302 784V749.632H526.838C528.758 749.632 530.35 750.248 531.614 751.48C532.894 752.696 533.534 754.2 533.534 755.992V761.032C533.534 762.296 533.15 763.4 532.382 764.344C531.63 765.288 530.758 765.872 529.766 766.096V766.216C531.078 766.472 532.182 767.136 533.078 768.208C533.974 769.264 534.422 770.52 534.422 771.976V776.368C534.422 778.736 533.726 780.6 532.334 781.96C530.958 783.32 529.262 784 527.246 784H519.302ZM523.022 780.472H526.862C527.982 780.472 528.886 780.088 529.574 779.32C530.262 778.552 530.606 777.568 530.606 776.368V771.976C530.606 770.808 530.278 769.88 529.622 769.192C528.966 768.504 528.086 768.16 526.982 768.16H521.558V764.68H526.454C527.478 764.68 528.286 764.344 528.878 763.672C529.486 762.984 529.79 762.064 529.79 760.912V756.568C529.79 755.544 529.478 754.72 528.854 754.096C528.23 753.472 527.438 753.16 526.478 753.16H523.022V780.472ZM542.993 784V749.632H546.713V784H542.993ZM556.512 784V749.632H560.232V780.472H568.344V784H556.512ZM576.03 784V749.632H579.75V784H576.03ZM592.621 784V751.624H596.365V784H592.621ZM587.365 753.16V749.632H601.621V753.16H587.365ZM613.662 770.608L607.134 749.632H611.142L614.886 762.808L615.462 765.304H615.558L616.086 762.832L619.806 749.632H623.67L617.19 770.584L613.662 770.608ZM613.566 784V768.448H617.286V784H613.566ZM651.516 784.504C648.716 784.504 646.476 783.592 644.796 781.768C643.132 779.944 642.3 777.472 642.3 774.352V759.208C642.3 756.136 643.132 753.688 644.796 751.864C646.476 750.04 648.724 749.128 651.54 749.128C654.34 749.128 656.58 750.04 658.26 751.864C659.94 753.672 660.78 756.12 660.78 759.208V774.352C660.78 777.472 659.932 779.944 658.236 781.768C656.556 783.592 654.316 784.504 651.516 784.504ZM651.54 780.976C653.172 780.976 654.484 780.424 655.476 779.32C656.468 778.2 656.964 776.712 656.964 774.856V758.68C656.964 756.872 656.46 755.416 655.452 754.312C654.444 753.208 653.14 752.656 651.54 752.656C649.908 752.656 648.588 753.208 647.58 754.312C646.588 755.416 646.092 756.872 646.092 758.68V774.856C646.092 776.712 646.588 778.2 647.58 779.32C648.572 780.424 649.892 780.976 651.54 780.976ZM669.874 784V749.632H673.858L682.45 773.608H682.546L682.21 766.912V749.632H685.882V784H682.258L673.306 759.16H673.21L673.522 766.072V784H669.874ZM715.638 784.504C712.918 784.504 710.79 783.624 709.254 781.864C707.718 780.104 706.95 777.648 706.95 774.496V759.112C706.95 755.96 707.742 753.512 709.326 751.768C710.926 750.008 713.102 749.128 715.854 749.128C717.342 749.128 718.614 749.408 719.67 749.968C720.742 750.512 721.59 751.24 722.214 752.152C722.838 753.064 723.278 753.944 723.534 754.792C723.79 755.64 723.918 756.096 723.918 756.16C723.918 756.208 723.918 756.232 723.918 756.232L720.582 757.576C720.582 757.576 720.478 757.256 720.27 756.616C720.062 755.976 719.79 755.352 719.454 754.744C719.118 754.136 718.646 753.64 718.038 753.256C717.446 752.872 716.726 752.68 715.878 752.68C714.342 752.68 713.102 753.208 712.158 754.264C711.214 755.304 710.742 756.752 710.742 758.608V775.072C710.742 776.864 711.206 778.296 712.134 779.368C713.062 780.424 714.294 780.952 715.83 780.952C716.71 780.952 717.462 780.728 718.086 780.28C718.726 779.832 719.254 779.248 719.67 778.528C720.086 777.808 720.382 777.064 720.558 776.296C720.734 775.512 720.822 775.12 720.822 775.12L724.158 776.488C724.158 776.488 724.014 777.008 723.726 778.048C723.454 779.072 722.99 780.088 722.334 781.096C721.678 782.104 720.79 782.928 719.67 783.568C718.566 784.192 717.222 784.504 715.638 784.504ZM729.785 784L736.505 749.632H741.017L747.617 784H743.777L739.193 758.896L738.761 756.232H738.641L738.209 758.896L733.553 784H729.785ZM733.361 774.88L734.033 771.544H743.441L744.089 774.88H733.361ZM755.215 784V749.632H759.487L766.183 777.544H766.279L772.951 749.632H777.223V784H773.623V766.288L773.815 760.816H773.719L767.815 784H764.599L758.719 760.84H758.599L758.815 766.312V784H755.215ZM787.015 784V749.632H793.759C796.191 749.632 798.111 750.328 799.519 751.72C800.927 753.096 801.631 755 801.631 757.432V763C801.631 765.464 800.911 767.424 799.471 768.88C798.047 770.336 796.031 771.064 793.423 771.064H788.959V767.584H793.591C794.935 767.584 795.975 767.2 796.711 766.432C797.447 765.664 797.815 764.568 797.815 763.144V757.504C797.815 756.08 797.463 755 796.759 754.264C796.055 753.512 795.039 753.136 793.711 753.136H790.735V784H787.015ZM817.231 784.504C814.815 784.504 812.927 783.744 811.567 782.224C810.207 780.688 809.527 778.56 809.527 775.84V749.632H813.247V776.2C813.247 777.704 813.599 778.872 814.303 779.704C815.007 780.536 815.991 780.952 817.255 780.952C818.535 780.952 819.527 780.536 820.231 779.704C820.935 778.872 821.287 777.704 821.287 776.2V749.632H824.935V775.84C824.935 778.576 824.255 780.704 822.895 782.224C821.535 783.744 819.647 784.504 817.231 784.504ZM840.156 784.504C838.684 784.504 837.436 784.184 836.412 783.544C835.388 782.904 834.596 782.04 834.036 780.952C833.476 779.848 833.108 778.688 832.932 777.472C832.756 776.24 832.668 775.624 832.668 775.624L836.34 774.496C836.34 774.496 836.412 775.024 836.556 776.08C836.7 777.136 836.924 778.016 837.228 778.72C837.532 779.408 837.94 779.96 838.452 780.376C838.98 780.792 839.588 781 840.276 781C841.316 781 842.132 780.696 842.724 780.088C843.332 779.464 843.636 778.592 843.636 777.472V774.976C843.636 773.392 843.324 772.096 842.7 771.088C842.092 770.08 840.78 768.608 838.764 766.672C836.38 764.448 834.876 762.704 834.252 761.44C833.628 760.16 833.316 758.856 833.316 757.528V755.872C833.316 753.92 833.948 752.312 835.212 751.048C836.476 749.768 838.124 749.128 840.156 749.128C841.468 749.128 842.596 749.392 843.54 749.92C844.5 750.448 845.244 751.208 845.772 752.2C846.316 753.176 846.668 754.2 846.828 755.272C846.988 756.328 847.068 756.856 847.068 756.856L843.468 757.984C843.468 757.984 843.412 757.6 843.3 756.832C843.204 756.064 843.012 755.336 842.724 754.648C842.452 753.96 842.1 753.464 841.668 753.16C841.236 752.856 840.716 752.704 840.108 752.704C839.196 752.704 838.468 752.968 837.924 753.496C837.38 754.008 837.108 754.72 837.108 755.632V757.048C837.108 758.328 837.412 759.456 838.02 760.432C838.628 761.408 839.932 762.76 841.932 764.488C843.996 766.456 845.428 768.176 846.228 769.648C847.028 771.12 847.428 772.688 847.428 774.352V776.68C847.428 779.224 846.756 781.168 845.412 782.512C844.084 783.84 842.332 784.504 840.156 784.504Z"
        fill="#F8F1E6" />
    <path
        d="M212.929 963.828L224.413 957.055L212.929 950.328V945.055L229.452 955.227V958.883L212.929 969.102V963.828Z"
        fill="#F8F1E6" />
    <rect x="152.864" y="924" width="42.2727" height="62" rx="21.1364" stroke="#F8F1E6"
        stroke-width="4" />
    <path d="M174 952.182L174 969.555" stroke="#F8F1E6" stroke-width="4" />
    <path d="M163.855 960.355L174 969.936L184.145 960.355" stroke="#F8F1E6" stroke-width="4" />
    <path d="M174 944V932" stroke="#F8F1E6" stroke-width="4" />
</svg>