<svg width="653" height="233" viewBox="0 0 653 233" fill="none" xmlns="http://www.w3.org/2000/svg">
    <path
        d="M45.8125 17.125H31.0625V87.1875H45.8125V59.125H76.875V78.8125C76.875 80.4792 76.7708 82.2708 76.5625 84.1875C76.3958 86.1042 75.8958 88.0208 75.0625 89.9375C74.2708 91.8125 73.0625 93.625 71.4375 95.375C69.8125 97.125 67.5625 98.6667 64.6875 100C61.8542 101.333 58.2917 102.396 54 103.188C49.75 104.021 44.5625 104.438 38.4375 104.438C32.3542 104.438 27.1875 104.021 22.9375 103.188C18.6875 102.396 15.125 101.333 12.25 100C9.41667 98.6667 7.1875 97.125 5.5625 95.375C3.9375 93.625 2.70833 91.8125 1.875 89.9375C1.04167 88.0208 0.520833 86.1042 0.3125 84.1875C0.104167 82.2708 0 80.4792 0 78.8125V25.3125C0 23.6458 0.104167 21.875 0.3125 20C0.520833 18.0833 1.02083 16.1875 1.8125 14.3125C2.64583 12.4375 3.875 10.6458 5.5 8.9375C7.16667 7.1875 9.41667 5.66667 12.25 4.375C15.0833 3.04167 18.6042 1.97917 22.8125 1.1875C27.0625 0.395833 32.2083 0 38.25 0C44.4167 0 49.6458 0.395833 53.9375 1.1875C58.2292 1.97917 61.8125 3.04167 64.6875 4.375C67.5625 5.66667 69.8125 7.1875 71.4375 8.9375C73.0625 10.6458 74.2708 12.4375 75.0625 14.3125C75.8958 16.1875 76.3958 18.0833 76.5625 20C76.7708 21.875 76.875 23.6458 76.875 25.3125V45.1875H45.8125V17.125ZM97.755 102V2.3125H128.817V87.1875H148.067V102H97.755ZM196.322 2.3125V102H165.26V2.3125H196.322ZM276.635 102H253.885L241.072 44.75V102H217.322V2.3125H255.697L265.26 63.125L274.822 2.3125H313.197V102H289.447V44.75L276.635 102ZM410.93 73.25C410.93 75.875 410.867 78.4167 410.742 80.875C410.659 83.3333 410.284 85.625 409.617 87.75C408.992 89.875 407.972 91.8125 406.555 93.5625C405.138 95.3125 403.138 96.8125 400.555 98.0625C397.972 99.3125 394.68 100.292 390.68 101C386.68 101.667 381.763 102 375.93 102H334.055V2.3125H376.492C381.909 2.3125 386.472 2.66667 390.18 3.375C393.888 4.08333 396.93 5.0625 399.305 6.3125C401.722 7.5625 403.576 9.02083 404.867 10.6875C406.159 12.3542 407.097 14.125 407.68 16C408.305 17.875 408.659 19.8333 408.742 21.875C408.867 23.875 408.93 25.8333 408.93 27.75C408.93 30.4583 408.68 32.7917 408.18 34.75C407.68 36.6667 407.034 38.3125 406.242 39.6875C405.451 41.0208 404.534 42.125 403.492 43C402.451 43.875 401.409 44.6042 400.367 45.1875C397.867 46.5625 395.034 47.375 391.867 47.625C395.534 47.875 398.784 48.7708 401.617 50.3125C402.867 50.9792 404.055 51.8333 405.18 52.875C406.305 53.875 407.284 55.25 408.117 57C408.992 58.75 409.68 60.9375 410.18 63.5625C410.68 66.1458 410.93 69.375 410.93 73.25ZM365.117 87.1875H379.867V55.125H365.117V87.1875ZM365.117 40.6875H379.867V17.125H365.117V40.6875ZM458.562 2.3125V102H427.5V2.3125H458.562ZM527.848 102L503.785 57.5625V102H478.035V2.3125H506.41L531.91 49.875V2.3125H556.848V102H527.848ZM652.42 59.125V102H625.232L622.232 95.5C621.399 97.1667 620.253 98.6458 618.795 99.9375C617.545 101.021 615.857 102.021 613.732 102.938C611.649 103.854 609.003 104.312 605.795 104.312C601.837 104.312 598.337 103.938 595.295 103.188C592.295 102.438 589.67 101.417 587.42 100.125C585.17 98.8333 583.274 97.3542 581.732 95.6875C580.232 94.0208 579.024 92.2708 578.107 90.4375C577.191 88.6042 576.524 86.7708 576.107 84.9375C575.732 83.0625 575.545 81.2917 575.545 79.625V25.3125C575.545 23.5208 575.649 21.6458 575.857 19.6875C576.107 17.7292 576.628 15.8125 577.42 13.9375C578.253 12.0625 579.482 10.2917 581.107 8.625C582.774 6.91667 585.003 5.4375 587.795 4.1875C590.628 2.89583 594.149 1.875 598.357 1.125C602.607 0.375 607.732 0 613.732 0C619.607 0 624.628 0.395833 628.795 1.1875C633.003 1.97917 636.524 3.04167 639.357 4.375C642.232 5.66667 644.524 7.1875 646.232 8.9375C647.982 10.6458 649.295 12.4375 650.17 14.3125C651.087 16.1875 651.691 18.0833 651.982 20C652.274 21.875 652.42 23.6458 652.42 25.3125V45.1875H621.357V17.125H606.607V87.1875H626.732V73.5625H617.732V59.125H652.42ZM45.8125 145.125H31.0625V215.188H45.8125V187.125H76.875V206.812C76.875 208.479 76.7708 210.271 76.5625 212.188C76.3958 214.104 75.8958 216.021 75.0625 217.938C74.2708 219.812 73.0625 221.625 71.4375 223.375C69.8125 225.125 67.5625 226.667 64.6875 228C61.8542 229.333 58.2917 230.396 54 231.188C49.75 232.021 44.5625 232.438 38.4375 232.438C32.3542 232.438 27.1875 232.021 22.9375 231.188C18.6875 230.396 15.125 229.333 12.25 228C9.41667 226.667 7.1875 225.125 5.5625 223.375C3.9375 221.625 2.70833 219.812 1.875 217.938C1.04167 216.021 0.520833 214.104 0.3125 212.188C0.104167 210.271 0 208.479 0 206.812V153.312C0 151.646 0.104167 149.875 0.3125 148C0.520833 146.083 1.02083 144.188 1.8125 142.312C2.64583 140.438 3.875 138.646 5.5 136.938C7.16667 135.188 9.41667 133.667 12.25 132.375C15.0833 131.042 18.6042 129.979 22.8125 129.188C27.0625 128.396 32.2083 128 38.25 128C44.4167 128 49.6458 128.396 53.9375 129.188C58.2292 129.979 61.8125 131.042 64.6875 132.375C67.5625 133.667 69.8125 135.188 71.4375 136.938C73.0625 138.646 74.2708 140.438 75.0625 142.312C75.8958 144.188 76.3958 146.083 76.5625 148C76.7708 149.875 76.875 151.646 76.875 153.312V173.188H45.8125V145.125ZM131.5 205.438L128.938 230H96.75L112.75 130.312H166.375L182.375 230H150.062L147.625 205.438H131.5ZM133.125 194.25H146L139.5 144.938L133.125 194.25ZM260.25 230H237.5L224.688 172.75V230H200.938V130.312H239.312L248.875 191.125L258.438 130.312H296.812V230H273.062V172.75L260.25 230ZM320.23 130.312H362.105C367.938 130.312 372.834 130.688 376.793 131.438C380.793 132.188 384.084 133.188 386.668 134.438C389.293 135.688 391.293 137.146 392.668 138.812C394.084 140.438 395.126 142.167 395.793 144C396.459 145.792 396.834 147.625 396.918 149.5C397.043 151.333 397.105 153.083 397.105 154.75V178.562C397.105 180.229 397.043 182 396.918 183.875C396.834 185.708 396.459 187.521 395.793 189.312C395.126 191.104 394.084 192.833 392.668 194.5C391.293 196.167 389.293 197.625 386.668 198.875C384.084 200.125 380.793 201.125 376.793 201.875C372.834 202.625 367.938 203 362.105 203H351.293V230H320.23V130.312ZM351.293 189.375H366.043V145.125H351.293V189.375ZM443.832 215.188H458.582V130.312H489.645V206.812C489.645 208.479 489.541 210.271 489.332 212.188C489.124 214.104 488.603 216.021 487.77 217.938C486.937 219.812 485.687 221.625 484.02 223.375C482.353 225.125 480.082 226.667 477.207 228C474.332 229.333 470.749 230.396 466.457 231.188C462.166 232.021 456.957 232.438 450.832 232.438C444.791 232.438 439.645 232.021 435.395 231.188C431.145 230.396 427.603 229.333 424.77 228C421.978 226.667 419.77 225.125 418.145 223.375C416.562 221.625 415.353 219.812 414.52 217.938C413.728 216.021 413.228 214.104 413.02 212.188C412.853 210.271 412.77 208.479 412.77 206.812V130.312H443.832V215.188ZM541.057 159.5C541.057 160.833 541.703 161.896 542.995 162.688C544.328 163.479 546.057 164.188 548.182 164.812C550.349 165.396 552.807 165.979 555.557 166.562C558.307 167.146 561.099 167.896 563.932 168.812C566.807 169.688 569.62 170.833 572.37 172.25C575.12 173.625 577.557 175.438 579.682 177.688C581.849 179.896 583.578 182.625 584.87 185.875C586.203 189.125 586.87 193.042 586.87 197.625C586.87 200.917 586.787 204.062 586.62 207.062C586.453 210.062 585.995 212.854 585.245 215.438C584.495 217.979 583.328 220.292 581.745 222.375C580.162 224.458 577.932 226.25 575.057 227.75C572.224 229.208 568.641 230.333 564.307 231.125C559.974 231.917 554.682 232.312 548.432 232.312C542.891 232.312 538.037 232.021 533.87 231.438C529.745 230.896 526.203 230.042 523.245 228.875C520.287 227.708 517.849 226.229 515.932 224.438C514.057 222.604 512.557 220.458 511.432 218C510.349 215.542 509.599 212.729 509.182 209.562C508.766 206.396 508.557 202.875 508.557 199H541.057V215.188H555.807V196.688C555.807 195.479 555.141 194.479 553.807 193.688C552.516 192.896 550.787 192.188 548.62 191.562C546.495 190.896 544.057 190.25 541.307 189.625C538.557 189 535.745 188.25 532.87 187.375C530.037 186.5 527.245 185.438 524.495 184.188C521.745 182.938 519.287 181.396 517.12 179.562C514.995 177.688 513.266 175.458 511.932 172.875C510.641 170.25 509.995 167.125 509.995 163.5C509.995 159 510.224 155 510.682 151.5C511.141 147.958 511.932 144.875 513.057 142.25C514.182 139.625 515.703 137.417 517.62 135.625C519.537 133.792 521.932 132.312 524.807 131.188C527.724 130.062 531.162 129.25 535.12 128.75C539.12 128.25 543.766 128 549.057 128C556.641 128 562.87 128.5 567.745 129.5C572.662 130.5 576.537 132.167 579.37 134.5C582.203 136.833 584.162 139.896 585.245 143.688C586.328 147.479 586.87 152.125 586.87 157.625H555.807V145.125H541.057V159.5Z"
        fill="#07151C" />
</svg>