<svg width="969" height="343" viewBox="0 0 969 343" fill="none" xmlns="http://www.w3.org/2000/svg">
<path d="M93.625 64.4119H82.8125V134.599H93.625V110.787H131.375V126.099C131.375 129.349 130.896 132.287 129.938 134.912C128.979 137.495 127.729 139.662 126.188 141.412C124.688 143.162 122.771 144.683 120.438 145.974C118.104 147.266 115.75 148.266 113.375 148.974C111.042 149.683 108.333 150.245 105.25 150.662C102.167 151.079 99.375 151.349 96.875 151.474C94.4167 151.599 91.625 151.662 88.5 151.662C85.625 151.662 83 151.599 80.625 151.474C78.25 151.391 75.5 151.141 72.375 150.724C69.2917 150.308 66.5417 149.745 64.125 149.037C61.7083 148.329 59.25 147.329 56.75 146.037C54.25 144.745 52.1875 143.224 50.5625 141.474C48.9375 139.724 47.6042 137.537 46.5625 134.912C45.5208 132.287 45 129.329 45 126.037V72.5369C45 69.3285 45.4792 66.4327 46.4375 63.8494C47.4375 61.2244 48.7083 59.0369 50.25 57.2869C51.8333 55.5369 53.8125 54.016 56.1875 52.7244C58.5625 51.391 60.9375 50.3702 63.3125 49.6619C65.7292 48.9535 68.4792 48.391 71.5625 47.9744C74.6458 47.516 77.4375 47.2244 79.9375 47.0994C82.4792 46.9744 85.2708 46.9119 88.3125 46.9119C91.5625 46.9119 94.4375 46.9744 96.9375 47.0994C99.4375 47.1827 102.25 47.4327 105.375 47.8494C108.542 48.266 111.271 48.8285 113.562 49.5369C115.896 50.2035 118.229 51.1827 120.562 52.4744C122.938 53.766 124.854 55.2869 126.312 57.0369C127.812 58.7869 129.021 60.9744 129.938 63.5994C130.896 66.2244 131.375 69.1827 131.375 72.4744V87.9744H93.625V64.4119ZM140.75 149.162V49.4744H178.5V134.099H199.812V149.162H140.75ZM245.5 49.4744V149.162H207.75V49.4744H245.5ZM334 89.2869L324.188 149.224H297.5L288.438 89.2869H287.562L284.062 149.162H255.25L260.5 49.4744H302.375L310.312 107.224H311.125L319.062 49.4744H361L366.25 149.162H338.375L334.875 89.2869H334ZM413.75 89.7244H424.562V64.2869H413.75V89.7244ZM413.75 134.474H424.562V101.037H413.75V134.474ZM438.875 94.5994V95.4119C443.542 95.9535 447.479 97.016 450.688 98.5994C453.938 100.141 456.396 102.099 458.062 104.474C459.729 106.808 460.896 109.266 461.562 111.849C462.271 114.391 462.625 117.245 462.625 120.412C462.625 126.204 462.021 130.954 460.812 134.662C459.604 138.329 457.562 141.245 454.688 143.412C451.854 145.579 448.396 147.079 444.312 147.912C440.229 148.745 435.021 149.162 428.688 149.162H376V49.4744H428.938C431.479 49.4744 433.771 49.5577 435.812 49.7244C437.854 49.8494 439.979 50.1202 442.188 50.5369C444.396 50.9535 446.333 51.516 448 52.2244C449.708 52.891 451.333 53.8285 452.875 55.0369C454.458 56.2035 455.75 57.5994 456.75 59.2244C457.75 60.8494 458.542 62.8285 459.125 65.1619C459.75 67.4535 460.062 70.0577 460.062 72.9744C460.062 79.5994 458.5 84.6619 455.375 88.1619C452.292 91.6202 446.792 93.766 438.875 94.5994ZM508.375 49.4744V149.162H470.625V49.4744H508.375ZM573.188 149.162L547.875 104.724V149.162H519.875V49.4744H552.188L579.125 97.0369V49.4744H606.875V149.162H573.188ZM668.938 141.412C664.771 148.204 657.458 151.599 647 151.599C642.917 151.599 639.125 151.099 635.625 150.099C632.167 149.099 629.062 147.62 626.312 145.662C623.604 143.704 621.479 141.099 619.938 137.849C618.396 134.599 617.625 130.891 617.625 126.724V72.4119C617.625 69.1619 618.104 66.2452 619.062 63.6619C620.021 61.0369 621.271 58.8494 622.812 57.0994C624.396 55.3494 626.375 53.8494 628.75 52.5994C631.125 51.3077 633.5 50.3077 635.875 49.5994C638.25 48.891 640.979 48.3285 644.062 47.9119C647.188 47.4952 649.979 47.2244 652.438 47.0994C654.938 46.9744 657.75 46.9119 660.875 46.9119C663.542 46.9119 666.083 46.9952 668.5 47.1619C670.917 47.2869 673.625 47.5785 676.625 48.0369C679.625 48.4535 682.354 49.0369 684.812 49.7869C687.271 50.4952 689.729 51.516 692.188 52.8494C694.646 54.141 696.708 55.6619 698.375 57.4119C700.042 59.1202 701.396 61.266 702.438 63.8494C703.479 66.4327 704 69.3077 704 72.4744V87.9744H666.188V64.2869H655.375V134.474H666.188V115.537H660.875V101.099H704V149.162H673.562L668.938 141.412ZM93.625 192.412H82.8125V262.599H93.625V238.787H131.375V254.099C131.375 257.349 130.896 260.287 129.938 262.912C128.979 265.495 127.729 267.662 126.188 269.412C124.688 271.162 122.771 272.683 120.438 273.974C118.104 275.266 115.75 276.266 113.375 276.974C111.042 277.683 108.333 278.245 105.25 278.662C102.167 279.079 99.375 279.349 96.875 279.474C94.4167 279.599 91.625 279.662 88.5 279.662C85.625 279.662 83 279.599 80.625 279.474C78.25 279.391 75.5 279.141 72.375 278.724C69.2917 278.308 66.5417 277.745 64.125 277.037C61.7083 276.329 59.25 275.329 56.75 274.037C54.25 272.745 52.1875 271.224 50.5625 269.474C48.9375 267.724 47.6042 265.537 46.5625 262.912C45.5208 260.287 45 257.329 45 254.037V200.537C45 197.329 45.4792 194.433 46.4375 191.849C47.4375 189.224 48.7083 187.037 50.25 185.287C51.8333 183.537 53.8125 182.016 56.1875 180.724C58.5625 179.391 60.9375 178.37 63.3125 177.662C65.7292 176.954 68.4792 176.391 71.5625 175.974C74.6458 175.516 77.4375 175.224 79.9375 175.099C82.4792 174.974 85.2708 174.912 88.3125 174.912C91.5625 174.912 94.4375 174.974 96.9375 175.099C99.4375 175.183 102.25 175.433 105.375 175.849C108.542 176.266 111.271 176.829 113.562 177.537C115.896 178.204 118.229 179.183 120.562 180.474C122.938 181.766 124.854 183.287 126.312 185.037C127.812 186.787 129.021 188.974 129.938 191.599C130.896 194.224 131.375 197.183 131.375 200.474V215.974H93.625V192.412ZM183.875 196.974H182.688L177.875 241.162H189L183.875 196.974ZM176.75 254.287L173.312 277.162H136.688L154.938 177.474H211.625L230.188 277.162H193.5L190.125 254.287H176.75ZM314.625 217.287L304.812 277.224H278.125L269.062 217.287H268.188L264.688 277.162H235.875L241.125 177.474H283L290.938 235.224H291.75L299.688 177.474H341.625L346.875 277.162H319L315.5 217.287H314.625ZM394.312 237.912H405.125V192.037H394.312V237.912ZM356.625 177.474H403.812C406.979 177.474 409.792 177.537 412.25 177.662C414.708 177.787 417.354 178.058 420.188 178.474C423.021 178.849 425.479 179.391 427.562 180.099C429.646 180.808 431.688 181.787 433.688 183.037C435.729 184.245 437.375 185.704 438.625 187.412C439.917 189.079 440.958 191.141 441.75 193.599C442.542 196.058 442.938 198.829 442.938 201.912V227.599C442.938 230.099 442.688 232.391 442.188 234.474C441.729 236.516 441.083 238.329 440.25 239.912C439.458 241.454 438.396 242.849 437.062 244.099C435.771 245.308 434.438 246.329 433.062 247.162C431.688 247.995 430.042 248.724 428.125 249.349C426.208 249.974 424.375 250.454 422.625 250.787C420.917 251.12 418.896 251.391 416.562 251.599C414.271 251.766 412.188 251.891 410.312 251.974C408.479 252.016 406.333 252.037 403.875 252.037H394.375V277.162H356.625V177.474ZM489.562 262.537H500.375V177.537H538.188V254.037C538.188 257.287 537.688 260.224 536.688 262.849C535.729 265.433 534.479 267.599 532.938 269.349C531.396 271.099 529.417 272.62 527 273.912C524.625 275.204 522.25 276.204 519.875 276.912C517.5 277.62 514.75 278.183 511.625 278.599C508.542 279.016 505.75 279.287 503.25 279.412C500.75 279.537 497.958 279.599 494.875 279.599C492 279.599 489.375 279.537 487 279.412C484.625 279.329 481.896 279.079 478.812 278.662C475.729 278.245 472.979 277.683 470.562 276.974C468.188 276.266 465.771 275.266 463.312 273.974C460.896 272.683 458.875 271.162 457.25 269.412C455.667 267.662 454.354 265.474 453.312 262.849C452.312 260.183 451.812 257.224 451.812 253.974V177.474H489.562V262.537ZM583 206.849L583.188 206.974C583.188 207.224 583.229 207.474 583.312 207.724C583.438 207.974 583.604 208.204 583.812 208.412C584.062 208.579 584.292 208.745 584.5 208.912C584.75 209.037 585.062 209.183 585.438 209.349C585.854 209.474 586.188 209.579 586.438 209.662C586.729 209.745 587.104 209.849 587.562 209.974C588.062 210.058 588.438 210.12 588.688 210.162C588.938 210.204 589.312 210.266 589.812 210.349C590.312 210.433 590.646 210.495 590.812 210.537C600.188 212.204 606.917 213.745 611 215.162C620.208 218.329 626.312 223.329 629.312 230.162C630.979 233.87 631.812 238.245 631.812 243.287C631.812 250.495 631.021 256.433 629.438 261.099C627.896 265.766 625.333 269.474 621.75 272.224C618.208 274.974 613.875 276.891 608.75 277.974C603.667 279.058 597.229 279.599 589.438 279.599C586.604 279.599 584.062 279.537 581.812 279.412C579.562 279.329 576.979 279.099 574.062 278.724C571.188 278.349 568.646 277.829 566.438 277.162C564.229 276.495 561.958 275.558 559.625 274.349C557.333 273.141 555.396 271.724 553.812 270.099C552.271 268.433 550.938 266.37 549.812 263.912C548.688 261.454 547.979 258.683 547.688 255.599C547.438 252.766 547.312 249.787 547.312 246.662H583.125V262.474H593.938V246.849C593.938 246.058 593.729 245.37 593.312 244.787C592.896 244.162 592.229 243.62 591.312 243.162C590.396 242.662 589.667 242.308 589.125 242.099C588.583 241.891 587.729 241.599 586.562 241.224C585.188 240.766 583.396 240.224 581.188 239.599C578.979 238.933 577.104 238.37 575.562 237.912C574.062 237.454 572.271 236.87 570.188 236.162C568.146 235.454 566.396 234.787 564.938 234.162C563.479 233.495 561.875 232.683 560.125 231.724C558.417 230.724 556.958 229.704 555.75 228.662C554.583 227.579 553.396 226.329 552.188 224.912C550.979 223.454 550.021 221.912 549.312 220.287C548.604 218.62 548.021 216.724 547.562 214.599C547.146 212.474 546.938 210.183 546.938 207.724C546.938 203.891 547.292 200.412 548 197.287C548.708 194.162 549.688 191.474 550.938 189.224C552.188 186.974 553.771 185.016 555.688 183.349C557.646 181.641 559.708 180.266 561.875 179.224C564.083 178.183 566.604 177.349 569.438 176.724C572.312 176.058 575.167 175.599 578 175.349C580.875 175.099 584.062 174.974 587.562 174.974C591.229 174.974 594.479 175.079 597.312 175.287C600.188 175.454 603.042 175.808 605.875 176.349C608.75 176.849 611.229 177.558 613.312 178.474C615.396 179.349 617.354 180.495 619.188 181.912C621.021 183.329 622.5 185.037 623.625 187.037C624.75 188.995 625.646 191.349 626.312 194.099C626.979 196.849 627.312 199.954 627.312 203.412H593.812V192.287H583V206.849Z" fill="#07151C"/>
<path d="M712.363 179.061L749.104 152.733L748.318 113.83L782.112 90.8425L780.737 46.832L923.773 102.828L914.342 150.769L828.678 151.947L884.281 178.275L876.618 222.286L791.936 223.858L844.592 253.526L839.091 294.393L713.149 217.963L712.363 179.061Z" fill="#07151C"/>
</svg>
