<svg width="1070" height="508" viewBox="0 0 1070 508" fill="none" xmlns="http://www.w3.org/2000/svg">
<path d="M113.625 93.75H102.812V163.938H113.625V140.125H151.375V155.438C151.375 158.688 150.896 161.625 149.938 164.25C148.979 166.833 147.729 169 146.188 170.75C144.688 172.5 142.771 174.021 140.438 175.312C138.104 176.604 135.75 177.604 133.375 178.312C131.042 179.021 128.333 179.583 125.25 180C122.167 180.417 119.375 180.688 116.875 180.812C114.417 180.938 111.625 181 108.5 181C105.625 181 103 180.938 100.625 180.812C98.25 180.729 95.5 180.479 92.375 180.062C89.2917 179.646 86.5417 179.083 84.125 178.375C81.7083 177.667 79.25 176.667 76.75 175.375C74.25 174.083 72.1875 172.562 70.5625 170.812C68.9375 169.062 67.6042 166.875 66.5625 164.25C65.5208 161.625 65 158.667 65 155.375V101.875C65 98.6667 65.4792 95.7708 66.4375 93.1875C67.4375 90.5625 68.7083 88.375 70.25 86.625C71.8333 84.875 73.8125 83.3542 76.1875 82.0625C78.5625 80.7292 80.9375 79.7083 83.3125 79C85.7292 78.2917 88.4792 77.7292 91.5625 77.3125C94.6458 76.8542 97.4375 76.5625 99.9375 76.4375C102.479 76.3125 105.271 76.25 108.312 76.25C111.562 76.25 114.438 76.3125 116.938 76.4375C119.438 76.5208 122.25 76.7708 125.375 77.1875C128.542 77.6042 131.271 78.1667 133.562 78.875C135.896 79.5417 138.229 80.5208 140.562 81.8125C142.938 83.1042 144.854 84.625 146.312 86.375C147.812 88.125 149.021 90.3125 149.938 92.9375C150.896 95.5625 151.375 98.5208 151.375 101.812V117.312H113.625V93.75ZM160.75 178.5V78.8125H198.5V163.438H219.812V178.5H160.75ZM265.5 78.8125V178.5H227.75V78.8125H265.5ZM354 118.625L344.188 178.562H317.5L308.438 118.625H307.562L304.062 178.5H275.25L280.5 78.8125H322.375L330.312 136.562H331.125L339.062 78.8125H381L386.25 178.5H358.375L354.875 118.625H354ZM433.75 119.062H444.562V93.625H433.75V119.062ZM433.75 163.812H444.562V130.375H433.75V163.812ZM458.875 123.938V124.75C463.542 125.292 467.479 126.354 470.688 127.938C473.938 129.479 476.396 131.438 478.062 133.812C479.729 136.146 480.896 138.604 481.562 141.188C482.271 143.729 482.625 146.583 482.625 149.75C482.625 155.542 482.021 160.292 480.812 164C479.604 167.667 477.562 170.583 474.688 172.75C471.854 174.917 468.396 176.417 464.312 177.25C460.229 178.083 455.021 178.5 448.688 178.5H396V78.8125H448.938C451.479 78.8125 453.771 78.8958 455.812 79.0625C457.854 79.1875 459.979 79.4583 462.188 79.875C464.396 80.2917 466.333 80.8542 468 81.5625C469.708 82.2292 471.333 83.1667 472.875 84.375C474.458 85.5417 475.75 86.9375 476.75 88.5625C477.75 90.1875 478.542 92.1667 479.125 94.5C479.75 96.7917 480.062 99.3958 480.062 102.312C480.062 108.938 478.5 114 475.375 117.5C472.292 120.958 466.792 123.104 458.875 123.938ZM528.375 78.8125V178.5H490.625V78.8125H528.375ZM593.188 178.5L567.875 134.062V178.5H539.875V78.8125H572.188L599.125 126.375V78.8125H626.875V178.5H593.188ZM688.938 170.75C684.771 177.542 677.458 180.938 667 180.938C662.917 180.938 659.125 180.438 655.625 179.438C652.167 178.438 649.062 176.958 646.312 175C643.604 173.042 641.479 170.438 639.938 167.188C638.396 163.938 637.625 160.229 637.625 156.062V101.75C637.625 98.5 638.104 95.5833 639.062 93C640.021 90.375 641.271 88.1875 642.812 86.4375C644.396 84.6875 646.375 83.1875 648.75 81.9375C651.125 80.6458 653.5 79.6458 655.875 78.9375C658.25 78.2292 660.979 77.6667 664.062 77.25C667.188 76.8333 669.979 76.5625 672.438 76.4375C674.938 76.3125 677.75 76.25 680.875 76.25C683.542 76.25 686.083 76.3333 688.5 76.5C690.917 76.625 693.625 76.9167 696.625 77.375C699.625 77.7917 702.354 78.375 704.812 79.125C707.271 79.8333 709.729 80.8542 712.188 82.1875C714.646 83.4792 716.708 85 718.375 86.75C720.042 88.4583 721.396 90.6042 722.438 93.1875C723.479 95.7708 724 98.6458 724 101.812V117.312H686.188V93.625H675.375V163.812H686.188V144.875H680.875V130.438H724V178.5H693.562L688.938 170.75ZM113.625 221.75H102.812V291.938H113.625V268.125H151.375V283.438C151.375 286.688 150.896 289.625 149.938 292.25C148.979 294.833 147.729 297 146.188 298.75C144.688 300.5 142.771 302.021 140.438 303.312C138.104 304.604 135.75 305.604 133.375 306.312C131.042 307.021 128.333 307.583 125.25 308C122.167 308.417 119.375 308.688 116.875 308.812C114.417 308.938 111.625 309 108.5 309C105.625 309 103 308.938 100.625 308.812C98.25 308.729 95.5 308.479 92.375 308.062C89.2917 307.646 86.5417 307.083 84.125 306.375C81.7083 305.667 79.25 304.667 76.75 303.375C74.25 302.083 72.1875 300.562 70.5625 298.812C68.9375 297.062 67.6042 294.875 66.5625 292.25C65.5208 289.625 65 286.667 65 283.375V229.875C65 226.667 65.4792 223.771 66.4375 221.188C67.4375 218.562 68.7083 216.375 70.25 214.625C71.8333 212.875 73.8125 211.354 76.1875 210.062C78.5625 208.729 80.9375 207.708 83.3125 207C85.7292 206.292 88.4792 205.729 91.5625 205.312C94.6458 204.854 97.4375 204.562 99.9375 204.438C102.479 204.312 105.271 204.25 108.312 204.25C111.562 204.25 114.438 204.312 116.938 204.438C119.438 204.521 122.25 204.771 125.375 205.188C128.542 205.604 131.271 206.167 133.562 206.875C135.896 207.542 138.229 208.521 140.562 209.812C142.938 211.104 144.854 212.625 146.312 214.375C147.812 216.125 149.021 218.312 149.938 220.938C150.896 223.562 151.375 226.521 151.375 229.812V245.312H113.625V221.75ZM203.875 226.312H202.688L197.875 270.5H209L203.875 226.312ZM196.75 283.625L193.312 306.5H156.688L174.938 206.812H231.625L250.188 306.5H213.5L210.125 283.625H196.75ZM334.625 246.625L324.812 306.562H298.125L289.062 246.625H288.188L284.688 306.5H255.875L261.125 206.812H303L310.938 264.562H311.75L319.688 206.812H361.625L366.875 306.5H339L335.5 246.625H334.625ZM414.312 267.25H425.125V221.375H414.312V267.25ZM376.625 206.812H423.812C426.979 206.812 429.792 206.875 432.25 207C434.708 207.125 437.354 207.396 440.188 207.812C443.021 208.188 445.479 208.729 447.562 209.438C449.646 210.146 451.688 211.125 453.688 212.375C455.729 213.583 457.375 215.042 458.625 216.75C459.917 218.417 460.958 220.479 461.75 222.938C462.542 225.396 462.938 228.167 462.938 231.25V256.938C462.938 259.438 462.688 261.729 462.188 263.812C461.729 265.854 461.083 267.667 460.25 269.25C459.458 270.792 458.396 272.188 457.062 273.438C455.771 274.646 454.438 275.667 453.062 276.5C451.688 277.333 450.042 278.062 448.125 278.688C446.208 279.312 444.375 279.792 442.625 280.125C440.917 280.458 438.896 280.729 436.562 280.938C434.271 281.104 432.188 281.229 430.312 281.312C428.479 281.354 426.333 281.375 423.875 281.375H414.375V306.5H376.625V206.812ZM509.562 291.875H520.375V206.875H558.188V283.375C558.188 286.625 557.688 289.562 556.688 292.188C555.729 294.771 554.479 296.938 552.938 298.688C551.396 300.438 549.417 301.958 547 303.25C544.625 304.542 542.25 305.542 539.875 306.25C537.5 306.958 534.75 307.521 531.625 307.938C528.542 308.354 525.75 308.625 523.25 308.75C520.75 308.875 517.958 308.938 514.875 308.938C512 308.938 509.375 308.875 507 308.75C504.625 308.667 501.896 308.417 498.812 308C495.729 307.583 492.979 307.021 490.562 306.312C488.188 305.604 485.771 304.604 483.312 303.312C480.896 302.021 478.875 300.5 477.25 298.75C475.667 297 474.354 294.812 473.312 292.188C472.312 289.521 471.812 286.562 471.812 283.312V206.812H509.562V291.875ZM603 236.188L603.188 236.312C603.188 236.562 603.229 236.812 603.312 237.062C603.438 237.312 603.604 237.542 603.812 237.75C604.062 237.917 604.292 238.083 604.5 238.25C604.75 238.375 605.062 238.521 605.438 238.688C605.854 238.812 606.188 238.917 606.438 239C606.729 239.083 607.104 239.188 607.562 239.312C608.062 239.396 608.438 239.458 608.688 239.5C608.938 239.542 609.312 239.604 609.812 239.688C610.312 239.771 610.646 239.833 610.812 239.875C620.188 241.542 626.917 243.083 631 244.5C640.208 247.667 646.312 252.667 649.312 259.5C650.979 263.208 651.812 267.583 651.812 272.625C651.812 279.833 651.021 285.771 649.438 290.438C647.896 295.104 645.333 298.812 641.75 301.562C638.208 304.312 633.875 306.229 628.75 307.312C623.667 308.396 617.229 308.938 609.438 308.938C606.604 308.938 604.062 308.875 601.812 308.75C599.562 308.667 596.979 308.438 594.062 308.062C591.188 307.688 588.646 307.167 586.438 306.5C584.229 305.833 581.958 304.896 579.625 303.688C577.333 302.479 575.396 301.062 573.812 299.438C572.271 297.771 570.938 295.708 569.812 293.25C568.688 290.792 567.979 288.021 567.688 284.938C567.438 282.104 567.312 279.125 567.312 276H603.125V291.812H613.938V276.188C613.938 275.396 613.729 274.708 613.312 274.125C612.896 273.5 612.229 272.958 611.312 272.5C610.396 272 609.667 271.646 609.125 271.438C608.583 271.229 607.729 270.938 606.562 270.562C605.188 270.104 603.396 269.562 601.188 268.938C598.979 268.271 597.104 267.708 595.562 267.25C594.062 266.792 592.271 266.208 590.188 265.5C588.146 264.792 586.396 264.125 584.938 263.5C583.479 262.833 581.875 262.021 580.125 261.062C578.417 260.062 576.958 259.042 575.75 258C574.583 256.917 573.396 255.667 572.188 254.25C570.979 252.792 570.021 251.25 569.312 249.625C568.604 247.958 568.021 246.062 567.562 243.938C567.146 241.812 566.938 239.521 566.938 237.062C566.938 233.229 567.292 229.75 568 226.625C568.708 223.5 569.688 220.812 570.938 218.562C572.188 216.312 573.771 214.354 575.688 212.688C577.646 210.979 579.708 209.604 581.875 208.562C584.083 207.521 586.604 206.688 589.438 206.062C592.312 205.396 595.167 204.938 598 204.688C600.875 204.438 604.062 204.312 607.562 204.312C611.229 204.312 614.479 204.417 617.312 204.625C620.188 204.792 623.042 205.146 625.875 205.688C628.75 206.188 631.229 206.896 633.312 207.812C635.396 208.688 637.354 209.833 639.188 211.25C641.021 212.667 642.5 214.375 643.625 216.375C644.75 218.333 645.646 220.688 646.312 223.438C646.979 226.188 647.312 229.292 647.312 232.75H613.812V221.625H603V236.188Z" fill="#F8F1E6"/>
<path d="M976.797 138.055L833.762 82.0594L865.394 63.9835L1005.29 114.478L975.815 243.564L892.115 329.621L897.617 288.754L844.961 259.086L929.643 257.514L937.305 213.503L881.702 187.175L967.366 185.996L976.797 138.055Z" fill="#F8F1E6"/>
<path d="M65.8925 451V416.632H70.1645L76.8125 444.544H76.9325L83.5565 416.632H87.8525V451H84.2285V433.288L84.4445 427.816H84.3245L78.4685 451H75.2285L69.3965 427.84H69.2765L69.4925 433.312V451H65.8925ZM110.872 451.504C108.072 451.504 105.832 450.592 104.152 448.768C102.488 446.944 101.656 444.472 101.656 441.352V426.208C101.656 423.136 102.496 420.688 104.176 418.864C105.856 417.04 108.096 416.128 110.896 416.128C113.696 416.128 115.936 417.04 117.616 418.864C119.296 420.672 120.136 423.12 120.136 426.208V441.352C120.136 444.472 119.288 446.944 117.592 448.768C115.912 450.592 113.672 451.504 110.872 451.504ZM110.896 447.976C112.528 447.976 113.84 447.424 114.832 446.32C115.824 445.2 116.32 443.712 116.32 441.856V425.68C116.32 423.872 115.816 422.416 114.808 421.312C113.8 420.208 112.496 419.656 110.896 419.656C109.264 419.656 107.952 420.208 106.96 421.312C105.968 422.416 105.472 423.872 105.472 425.68V441.856C105.472 443.712 105.96 445.2 106.936 446.32C107.928 447.424 109.248 447.976 110.896 447.976ZM133.983 451V416.632H141.375C143.295 416.632 144.887 417.248 146.151 418.48C147.431 419.696 148.071 421.2 148.071 422.992V428.032C148.071 429.296 147.695 430.4 146.943 431.344C146.191 432.288 145.319 432.872 144.327 433.096V433.216C145.639 433.472 146.735 434.136 147.615 435.208C148.511 436.264 148.959 437.52 148.959 438.976V443.368C148.959 445.736 148.271 447.6 146.895 448.96C145.519 450.32 143.815 451 141.783 451H133.983ZM137.703 447.472H141.423C142.527 447.472 143.423 447.088 144.111 446.32C144.815 445.552 145.167 444.568 145.167 443.368V438.976C145.167 437.808 144.831 436.88 144.159 436.192C143.503 435.504 142.623 435.16 141.519 435.16H136.239V431.68H140.991C142.015 431.68 142.823 431.344 143.415 430.672C144.023 429.984 144.327 429.064 144.327 427.912V423.568C144.327 422.544 144.015 421.72 143.391 421.096C142.783 420.472 141.991 420.16 141.015 420.16H137.703V447.472ZM162.286 451V416.632H166.006V451H162.286ZM180.558 451V416.632H184.278V447.472H192.294V451H180.558ZM204.736 451V416.632H208.456V451H204.736ZM225.984 451V418.624H229.728V451H225.984ZM220.824 420.16V416.632H234.864V420.16H220.824ZM251.687 437.608L245.183 416.632H249.167L252.935 429.808L253.487 432.304H253.583L254.135 429.832L257.831 416.632H261.695C261.711 416.632 261.711 416.632 261.695 416.632L255.215 437.584L251.687 437.608ZM251.591 451V435.448H255.335V451H251.591ZM302.816 451.528L292.856 429.88C292.28 428.568 291.856 427.424 291.584 426.448C291.328 425.472 291.2 424.536 291.2 423.64V422.056C291.2 420.28 291.704 418.848 292.712 417.76C293.72 416.672 295.088 416.128 296.816 416.128C298.512 416.128 299.808 416.672 300.704 417.76C301.616 418.832 302.224 420.456 302.528 422.632L299.144 423.736C298.952 422.328 298.68 421.328 298.328 420.736C297.976 420.144 297.48 419.848 296.84 419.848C296.216 419.848 295.736 420.064 295.4 420.496C295.064 420.928 294.896 421.544 294.896 422.344V423.376C294.896 424.176 295.008 425 295.232 425.848C295.456 426.696 295.736 427.512 296.072 428.296L306.032 449.992L302.816 451.528ZM306.68 437.296C306.2 442.032 305.072 445.592 303.296 447.976C301.536 450.344 299.32 451.528 296.648 451.528C294.296 451.528 292.408 450.816 290.984 449.392C289.56 447.952 288.848 445.88 288.848 443.176V439.48C288.848 437.288 289.304 435.352 290.216 433.672C291.128 431.976 292.48 430.632 294.272 429.64L295.904 433.36C294.832 433.872 294.016 434.584 293.456 435.496C292.912 436.392 292.64 437.8 292.64 439.72V442.864C292.64 444.608 293.016 445.904 293.768 446.752C294.536 447.584 295.6 448 296.96 448C298.72 448 300.128 447.064 301.184 445.192C302.256 443.32 302.992 440.344 303.392 436.264L306.68 437.296ZM333.746 451L340.442 416.632H344.93L351.482 451H347.642L343.106 425.896L342.674 423.232H342.554L342.122 425.896L337.49 451H333.746ZM337.274 441.88L337.946 438.544H347.354L348.002 441.88H337.274ZM370.891 451.504C368.187 451.504 366.051 450.616 364.483 448.84C362.915 447.064 362.131 444.616 362.131 441.496V426.112C362.131 422.976 362.931 420.528 364.531 418.768C366.147 417.008 368.323 416.128 371.059 416.128C372.515 416.128 373.771 416.4 374.827 416.944C375.899 417.488 376.755 418.224 377.395 419.152C378.051 420.08 378.611 421.44 379.075 423.232L375.739 424.576C375.323 423.136 374.939 422.136 374.587 421.576C374.251 421 373.795 420.544 373.219 420.208C372.659 419.856 371.971 419.68 371.155 419.68C369.603 419.68 368.347 420.208 367.387 421.264C366.427 422.304 365.947 423.744 365.947 425.584V442.048C365.947 443.856 366.411 445.296 367.339 446.368C368.283 447.424 369.523 447.952 371.059 447.952C371.955 447.952 372.707 447.736 373.315 447.304C373.939 446.856 374.451 446.28 374.851 445.576C375.251 444.872 375.635 443.728 376.003 442.144L379.315 443.536C378.803 445.632 378.211 447.176 377.539 448.168C376.867 449.144 375.987 449.944 374.899 450.568C373.811 451.192 372.475 451.504 370.891 451.504ZM399.85 451.504C397.146 451.504 395.01 450.616 393.442 448.84C391.874 447.064 391.09 444.616 391.09 441.496V426.112C391.09 422.976 391.89 420.528 393.49 418.768C395.106 417.008 397.282 416.128 400.018 416.128C401.474 416.128 402.73 416.4 403.786 416.944C404.858 417.488 405.714 418.224 406.354 419.152C407.01 420.08 407.57 421.44 408.034 423.232L404.698 424.576C404.282 423.136 403.898 422.136 403.546 421.576C403.21 421 402.754 420.544 402.178 420.208C401.618 419.856 400.93 419.68 400.114 419.68C398.562 419.68 397.306 420.208 396.346 421.264C395.386 422.304 394.906 423.744 394.906 425.584V442.048C394.906 443.856 395.37 445.296 396.298 446.368C397.242 447.424 398.482 447.952 400.018 447.952C400.914 447.952 401.666 447.736 402.274 447.304C402.898 446.856 403.41 446.28 403.81 445.576C404.21 444.872 404.594 443.728 404.962 442.144L408.274 443.536C407.762 445.632 407.17 447.176 406.498 448.168C405.826 449.144 404.946 449.944 403.858 450.568C402.77 451.192 401.434 451.504 399.85 451.504ZM420.98 451V416.632H433.868V420.16H424.7V447.472H433.94V451H420.98ZM422.948 435.232V431.776H432.572V435.232H422.948ZM452.746 451.504C450.538 451.504 448.81 450.784 447.562 449.344C446.33 447.904 445.562 445.664 445.258 442.624L448.954 441.52C449.194 443.824 449.626 445.48 450.25 446.488C450.874 447.48 451.738 447.976 452.842 447.976C453.85 447.976 454.65 447.672 455.242 447.064C455.85 446.456 456.154 445.6 456.154 444.496V441.976C456.154 440.424 455.842 439.144 455.218 438.136C454.61 437.112 453.306 435.632 451.306 433.696C448.954 431.456 447.458 429.712 446.818 428.464C446.194 427.2 445.882 425.912 445.882 424.6V422.968C445.882 420.952 446.514 419.312 447.778 418.048C449.058 416.768 450.69 416.128 452.674 416.128C454.546 416.128 456.082 416.696 457.282 417.832C458.482 418.968 459.234 420.976 459.538 423.856L455.962 424.984C455.754 423.16 455.394 421.824 454.882 420.976C454.37 420.128 453.61 419.704 452.602 419.704C451.754 419.704 451.05 419.976 450.49 420.52C449.946 421.048 449.674 421.776 449.674 422.704V424.12C449.674 425.384 449.978 426.504 450.586 427.48C451.21 428.456 452.506 429.8 454.474 431.512C456.554 433.48 457.986 435.2 458.77 436.672C459.554 438.144 459.946 439.712 459.946 441.376V443.704C459.946 446.248 459.266 448.184 457.906 449.512C456.546 450.84 454.826 451.504 452.746 451.504ZM478.799 451.504C476.591 451.504 474.863 450.784 473.615 449.344C472.383 447.904 471.615 445.664 471.311 442.624L475.007 441.52C475.247 443.824 475.679 445.48 476.303 446.488C476.927 447.48 477.791 447.976 478.895 447.976C479.903 447.976 480.703 447.672 481.295 447.064C481.903 446.456 482.207 445.6 482.207 444.496V441.976C482.207 440.424 481.895 439.144 481.271 438.136C480.663 437.112 479.359 435.632 477.359 433.696C475.007 431.456 473.511 429.712 472.871 428.464C472.247 427.2 471.935 425.912 471.935 424.6V422.968C471.935 420.952 472.567 419.312 473.831 418.048C475.111 416.768 476.743 416.128 478.727 416.128C480.599 416.128 482.135 416.696 483.335 417.832C484.535 418.968 485.287 420.976 485.591 423.856L482.015 424.984C481.807 423.16 481.447 421.824 480.935 420.976C480.423 420.128 479.663 419.704 478.655 419.704C477.807 419.704 477.103 419.976 476.543 420.52C475.999 421.048 475.727 421.776 475.727 422.704V424.12C475.727 425.384 476.031 426.504 476.639 427.48C477.263 428.456 478.559 429.8 480.527 431.512C482.607 433.48 484.039 435.2 484.823 436.672C485.607 438.144 485.999 439.712 485.999 441.376V443.704C485.999 446.248 485.319 448.184 483.959 449.512C482.599 450.84 480.879 451.504 478.799 451.504ZM499.093 451V416.632H502.813V451H499.093ZM517.364 451V416.632H524.756C526.676 416.632 528.268 417.248 529.532 418.48C530.812 419.696 531.452 421.2 531.452 422.992V428.032C531.452 429.296 531.076 430.4 530.324 431.344C529.572 432.288 528.7 432.872 527.708 433.096V433.216C529.02 433.472 530.116 434.136 530.996 435.208C531.892 436.264 532.34 437.52 532.34 438.976V443.368C532.34 445.736 531.652 447.6 530.276 448.96C528.9 450.32 527.196 451 525.164 451H517.364ZM521.084 447.472H524.804C525.908 447.472 526.804 447.088 527.492 446.32C528.196 445.552 528.548 444.568 528.548 443.368V438.976C528.548 437.808 528.212 436.88 527.54 436.192C526.884 435.504 526.004 435.16 524.9 435.16H519.62V431.68H524.372C525.396 431.68 526.204 431.344 526.796 430.672C527.404 429.984 527.708 429.064 527.708 427.912V423.568C527.708 422.544 527.396 421.72 526.772 421.096C526.164 420.472 525.372 420.16 524.396 420.16H521.084V447.472ZM545.667 451V416.632H549.387V451H545.667ZM563.939 451V416.632H567.659V447.472H575.675V451H563.939ZM588.118 451V416.632H591.838V451H588.118ZM609.365 451V418.624H613.109V451H609.365ZM604.205 420.16V416.632H618.245V420.16H604.205ZM635.068 437.608L628.564 416.632H632.548L636.316 429.808L636.868 432.304H636.964L637.516 429.832L641.212 416.632H645.076C645.092 416.632 645.092 416.632 645.076 416.632L638.596 437.584L635.068 437.608ZM634.972 451V435.448H638.716V451H634.972ZM682.381 451.504C679.581 451.504 677.341 450.592 675.661 448.768C673.997 446.944 673.165 444.472 673.165 441.352V426.208C673.165 423.136 674.005 420.688 675.685 418.864C677.365 417.04 679.605 416.128 682.405 416.128C685.205 416.128 687.445 417.04 689.125 418.864C690.805 420.672 691.645 423.12 691.645 426.208V441.352C691.645 444.472 690.797 446.944 689.101 448.768C687.421 450.592 685.181 451.504 682.381 451.504ZM682.405 447.976C684.037 447.976 685.349 447.424 686.341 446.32C687.333 445.2 687.829 443.712 687.829 441.856V425.68C687.829 423.872 687.325 422.416 686.317 421.312C685.309 420.208 684.005 419.656 682.405 419.656C680.773 419.656 679.461 420.208 678.469 421.312C677.477 422.416 676.981 423.872 676.981 425.68V441.856C676.981 443.712 677.469 445.2 678.445 446.32C679.437 447.424 680.757 447.976 682.405 447.976ZM705.493 451V416.632H709.477L717.997 440.608H718.093L717.781 433.912V416.632H721.429V451H717.805L708.925 426.16H708.829L709.141 433.072V451H705.493ZM755.653 451V418.624H759.397V451H755.653ZM750.493 420.16V416.632H764.533V420.16H750.493ZM788.83 451V416.632H792.574V451H788.83ZM776.902 451V416.632H780.622V451H776.902ZM778.942 435.16V431.632H790.678V435.16H778.942ZM807.08 451V416.632H810.8V451H807.08ZM850.141 451.504C847.437 451.504 845.301 450.616 843.733 448.84C842.165 447.064 841.381 444.616 841.381 441.496V426.112C841.381 422.976 842.181 420.528 843.781 418.768C845.397 417.008 847.573 416.128 850.309 416.128C851.765 416.128 853.021 416.4 854.077 416.944C855.149 417.488 856.005 418.224 856.645 419.152C857.301 420.08 857.861 421.44 858.325 423.232L854.989 424.576C854.573 423.136 854.189 422.136 853.837 421.576C853.501 421 853.045 420.544 852.469 420.208C851.909 419.856 851.221 419.68 850.405 419.68C848.853 419.68 847.597 420.208 846.637 421.264C845.677 422.304 845.197 423.744 845.197 425.584V442.048C845.197 443.856 845.661 445.296 846.589 446.368C847.533 447.424 848.773 447.952 850.309 447.952C851.205 447.952 851.957 447.736 852.565 447.304C853.189 446.856 853.701 446.28 854.101 445.576C854.501 444.872 854.885 443.728 855.253 442.144L858.565 443.536C858.053 445.632 857.461 447.176 856.789 448.168C856.117 449.144 855.237 449.944 854.149 450.568C853.061 451.192 851.725 451.504 850.141 451.504ZM868.993 451L875.689 416.632H880.177L886.729 451H882.889L878.353 425.896L877.921 423.232H877.801L877.369 425.896L872.737 451H868.993ZM872.521 441.88L873.193 438.544H882.601L883.249 441.88H872.521ZM899.105 451V416.632H903.377L910.025 444.544H910.145L916.769 416.632H921.065V451H917.441V433.288L917.657 427.816H917.537L911.681 451H908.441L902.609 427.84H902.489L902.705 433.312V451H899.105ZM935.564 451V416.632H942.212C944.644 416.632 946.564 417.328 947.972 418.72C949.396 420.096 950.108 421.984 950.108 424.384V429.976C950.108 432.408 949.388 434.352 947.948 435.808C946.508 437.264 944.492 437.992 941.9 437.992H937.508V434.536H942.068C943.396 434.536 944.428 434.144 945.164 433.36C945.916 432.576 946.292 431.496 946.292 430.12V424.48C946.292 423.088 945.94 422.016 945.236 421.264C944.548 420.512 943.548 420.136 942.236 420.136H939.284V451H935.564ZM970.32 451.504C967.92 451.504 966.048 450.744 964.704 449.224C963.376 447.688 962.712 445.544 962.712 442.792V416.632H966.456V443.248C966.456 444.752 966.792 445.912 967.464 446.728C968.152 447.544 969.112 447.952 970.344 447.952C971.608 447.952 972.576 447.544 973.248 446.728C973.936 445.912 974.28 444.752 974.28 443.248V416.632H977.904V442.792C977.904 445.56 977.24 447.704 975.912 449.224C974.584 450.744 972.72 451.504 970.32 451.504ZM997.884 451.504C995.676 451.504 993.948 450.784 992.7 449.344C991.468 447.904 990.7 445.664 990.396 442.624L994.092 441.52C994.332 443.824 994.764 445.48 995.388 446.488C996.012 447.48 996.876 447.976 997.98 447.976C998.988 447.976 999.788 447.672 1000.38 447.064C1000.99 446.456 1001.29 445.6 1001.29 444.496V441.976C1001.29 440.424 1000.98 439.144 1000.36 438.136C999.748 437.112 998.444 435.632 996.444 433.696C994.092 431.456 992.596 429.712 991.956 428.464C991.332 427.2 991.02 425.912 991.02 424.6V422.968C991.02 420.952 991.652 419.312 992.916 418.048C994.196 416.768 995.828 416.128 997.812 416.128C999.684 416.128 1001.22 416.696 1002.42 417.832C1003.62 418.968 1004.37 420.976 1004.68 423.856L1001.1 424.984C1000.89 423.16 1000.53 421.824 1000.02 420.976C999.508 420.128 998.748 419.704 997.74 419.704C996.892 419.704 996.188 419.976 995.628 420.52C995.084 421.048 994.812 421.776 994.812 422.704V424.12C994.812 425.384 995.116 426.504 995.724 427.48C996.348 428.456 997.644 429.8 999.612 431.512C1001.69 433.48 1003.12 435.2 1003.91 436.672C1004.69 438.144 1005.08 439.712 1005.08 441.376V443.704C1005.08 446.248 1004.4 448.184 1003.04 449.512C1001.68 450.84 999.964 451.504 997.884 451.504Z" fill="#BBBBBB"/>
</svg>
