<svg width="987" height="107" viewBox="0 0 987 107" fill="none" xmlns="http://www.w3.org/2000/svg">
<path d="M22.6147 70V35.632H26.8867L33.5827 63.544H33.6787L40.3507 35.632H44.6227V70H41.0227V52.288L41.2147 46.816H41.1187L35.2147 70H31.9987L26.1187 46.84H25.9987L26.2147 52.312V70H22.6147ZM67.7347 70.504C64.9347 70.504 62.6947 69.592 61.0147 67.768C59.3507 65.944 58.5187 63.472 58.5187 60.352V45.208C58.5187 42.136 59.3507 39.688 61.0147 37.864C62.6947 36.04 64.9427 35.128 67.7587 35.128C70.5587 35.128 72.7987 36.04 74.4787 37.864C76.1587 39.672 76.9987 42.12 76.9987 45.208V60.352C76.9987 63.472 76.1507 65.944 74.4547 67.768C72.7747 69.592 70.5347 70.504 67.7347 70.504ZM67.7587 66.976C69.3907 66.976 70.7027 66.424 71.6947 65.32C72.6867 64.2 73.1827 62.712 73.1827 60.856V44.68C73.1827 42.872 72.6787 41.416 71.6707 40.312C70.6627 39.208 69.3587 38.656 67.7587 38.656C66.1267 38.656 64.8067 39.208 63.7987 40.312C62.8067 41.416 62.3107 42.872 62.3107 44.68V60.856C62.3107 62.712 62.8067 64.2 63.7987 65.32C64.7907 66.424 66.1107 66.976 67.7587 66.976ZM90.8929 70V35.632H98.4289C100.349 35.632 101.941 36.248 103.205 37.48C104.485 38.696 105.125 40.2 105.125 41.992V47.032C105.125 48.296 104.741 49.4 103.973 50.344C103.221 51.288 102.349 51.872 101.357 52.096V52.216C102.669 52.472 103.773 53.136 104.669 54.208C105.565 55.264 106.013 56.52 106.013 57.976V62.368C106.013 64.736 105.317 66.6 103.925 67.96C102.549 69.32 100.853 70 98.8369 70H90.8929ZM94.6129 66.472H98.4529C99.5729 66.472 100.477 66.088 101.165 65.32C101.853 64.552 102.197 63.568 102.197 62.368V57.976C102.197 56.808 101.869 55.88 101.213 55.192C100.557 54.504 99.6769 54.16 98.5729 54.16H93.1489V50.68H98.0449C99.0689 50.68 99.8769 50.344 100.469 49.672C101.077 48.984 101.381 48.064 101.381 46.912V42.568C101.381 41.544 101.069 40.72 100.445 40.096C99.8209 39.472 99.0289 39.16 98.0689 39.16H94.6129V66.472ZM119.383 70V35.632H123.103V70H119.383ZM137.702 70V35.632H141.422V66.472H149.534V70H137.702ZM162.021 70V35.632H165.741V70H162.021ZM183.412 70V37.624H187.156V70H183.412ZM178.156 39.16V35.632H192.412V39.16H178.156ZM209.253 56.608L202.725 35.632H206.733L210.477 48.808L211.053 51.304H211.149L211.677 48.832L215.397 35.632H219.261L212.781 56.584L209.253 56.608ZM209.157 70V54.448H212.877V70H209.157ZM260.547 70.528L250.515 48.88C249.939 47.568 249.515 46.432 249.243 45.472C248.987 44.496 248.859 43.56 248.859 42.664V41.104C248.859 39.312 249.363 37.872 250.371 36.784C251.395 35.68 252.811 35.128 254.619 35.128C255.707 35.128 256.611 35.352 257.331 35.8C258.067 36.248 258.659 36.904 259.107 37.768C259.555 38.616 259.851 39.472 259.995 40.336C260.155 41.2 260.235 41.632 260.235 41.632L256.875 42.736C256.875 42.736 256.827 42.464 256.731 41.92C256.635 41.36 256.491 40.832 256.299 40.336C256.123 39.824 255.899 39.448 255.627 39.208C255.371 38.968 255.027 38.848 254.595 38.848C253.955 38.848 253.451 39.072 253.083 39.52C252.731 39.952 252.555 40.576 252.555 41.392V42.352C252.555 43.168 252.667 44 252.891 44.848C253.115 45.696 253.395 46.512 253.731 47.296L263.763 68.992L260.547 70.528ZM254.427 70.528C251.963 70.528 250.019 69.808 248.595 68.368C247.187 66.912 246.483 64.84 246.483 62.152V58.48C246.483 56.288 246.947 54.352 247.875 52.672C248.819 50.976 250.179 49.632 251.955 48.64L253.587 52.36C252.515 52.888 251.691 53.608 251.115 54.52C250.555 55.416 250.275 56.816 250.275 58.72V61.888C250.275 63.616 250.651 64.904 251.403 65.752C252.171 66.584 253.259 67 254.667 67C255.835 67 256.835 66.608 257.667 65.824C258.499 65.024 259.179 63.92 259.707 62.512C260.235 61.088 260.603 59.528 260.811 57.832C261.035 56.12 261.147 55.264 261.147 55.264L264.435 56.296C264.435 56.296 264.291 57.296 264.003 59.296C263.715 61.28 263.139 63.144 262.275 64.888C261.411 66.632 260.315 68.008 258.987 69.016C257.659 70.024 256.139 70.528 254.427 70.528ZM291.616 70L298.336 35.632H302.848L309.448 70H305.608L301.024 44.896L300.592 42.232H300.472L300.04 44.896L295.384 70H291.616ZM295.192 60.88L295.864 57.544H305.272L305.92 60.88H295.192ZM328.807 70.504C326.087 70.504 323.959 69.624 322.423 67.864C320.887 66.104 320.119 63.648 320.119 60.496V45.112C320.119 41.96 320.911 39.512 322.495 37.768C324.095 36.008 326.271 35.128 329.023 35.128C330.511 35.128 331.783 35.408 332.839 35.968C333.911 36.512 334.759 37.24 335.383 38.152C336.007 39.064 336.447 39.944 336.703 40.792C336.959 41.64 337.087 42.096 337.087 42.16C337.087 42.208 337.087 42.232 337.087 42.232L333.751 43.576C333.751 43.576 333.647 43.256 333.439 42.616C333.231 41.976 332.959 41.352 332.623 40.744C332.287 40.136 331.815 39.64 331.207 39.256C330.615 38.872 329.895 38.68 329.047 38.68C327.511 38.68 326.271 39.208 325.327 40.264C324.383 41.304 323.911 42.752 323.911 44.608V61.072C323.911 62.864 324.375 64.296 325.303 65.368C326.231 66.424 327.463 66.952 328.999 66.952C329.879 66.952 330.631 66.728 331.255 66.28C331.895 65.832 332.423 65.248 332.839 64.528C333.255 63.808 333.551 63.064 333.727 62.296C333.903 61.512 333.991 61.12 333.991 61.12L337.327 62.488C337.327 62.488 337.183 63.008 336.895 64.048C336.623 65.072 336.159 66.088 335.503 67.096C334.847 68.104 333.959 68.928 332.839 69.568C331.735 70.192 330.391 70.504 328.807 70.504ZM357.813 70.504C355.093 70.504 352.965 69.624 351.429 67.864C349.893 66.104 349.125 63.648 349.125 60.496V45.112C349.125 41.96 349.917 39.512 351.501 37.768C353.101 36.008 355.277 35.128 358.029 35.128C359.517 35.128 360.789 35.408 361.845 35.968C362.917 36.512 363.765 37.24 364.389 38.152C365.013 39.064 365.453 39.944 365.709 40.792C365.965 41.64 366.093 42.096 366.093 42.16C366.093 42.208 366.093 42.232 366.093 42.232L362.757 43.576C362.757 43.576 362.653 43.256 362.445 42.616C362.237 41.976 361.965 41.352 361.629 40.744C361.293 40.136 360.821 39.64 360.213 39.256C359.621 38.872 358.901 38.68 358.053 38.68C356.517 38.68 355.277 39.208 354.333 40.264C353.389 41.304 352.917 42.752 352.917 44.608V61.072C352.917 62.864 353.381 64.296 354.309 65.368C355.237 66.424 356.469 66.952 358.005 66.952C358.885 66.952 359.637 66.728 360.261 66.28C360.901 65.832 361.429 65.248 361.845 64.528C362.261 63.808 362.557 63.064 362.733 62.296C362.909 61.512 362.997 61.12 362.997 61.12L366.333 62.488C366.333 62.488 366.189 63.008 365.901 64.048C365.629 65.072 365.165 66.088 364.509 67.096C363.853 68.104 362.965 68.928 361.845 69.568C360.741 70.192 359.397 70.504 357.813 70.504ZM379.062 70V35.632H392.07V39.16H382.782V66.472H392.142V70H379.062ZM381.03 54.232V50.776H390.798V54.232H381.03ZM410.968 70.504C409.496 70.504 408.248 70.184 407.224 69.544C406.2 68.904 405.408 68.04 404.848 66.952C404.288 65.848 403.92 64.688 403.744 63.472C403.568 62.24 403.48 61.624 403.48 61.624L407.152 60.496C407.152 60.496 407.224 61.024 407.368 62.08C407.512 63.136 407.736 64.016 408.04 64.72C408.344 65.408 408.752 65.96 409.264 66.376C409.792 66.792 410.4 67 411.088 67C412.128 67 412.944 66.696 413.536 66.088C414.144 65.464 414.448 64.592 414.448 63.472V60.976C414.448 59.392 414.136 58.096 413.512 57.088C412.904 56.08 411.592 54.608 409.576 52.672C407.192 50.448 405.688 48.704 405.064 47.44C404.44 46.16 404.128 44.856 404.128 43.528V41.872C404.128 39.92 404.76 38.312 406.024 37.048C407.288 35.768 408.936 35.128 410.968 35.128C412.28 35.128 413.408 35.392 414.352 35.92C415.312 36.448 416.056 37.208 416.584 38.2C417.128 39.176 417.48 40.2 417.64 41.272C417.8 42.328 417.88 42.856 417.88 42.856L414.28 43.984C414.28 43.984 414.224 43.6 414.112 42.832C414.016 42.064 413.824 41.336 413.536 40.648C413.264 39.96 412.912 39.464 412.48 39.16C412.048 38.856 411.528 38.704 410.92 38.704C410.008 38.704 409.28 38.968 408.736 39.496C408.192 40.008 407.92 40.72 407.92 41.632V43.048C407.92 44.328 408.224 45.456 408.832 46.432C409.44 47.408 410.744 48.76 412.744 50.488C414.808 52.456 416.24 54.176 417.04 55.648C417.84 57.12 418.24 58.688 418.24 60.352V62.68C418.24 65.224 417.568 67.168 416.224 68.512C414.896 69.84 413.144 70.504 410.968 70.504ZM437.115 70.504C435.643 70.504 434.395 70.184 433.371 69.544C432.347 68.904 431.555 68.04 430.995 66.952C430.435 65.848 430.067 64.688 429.891 63.472C429.715 62.24 429.627 61.624 429.627 61.624L433.299 60.496C433.299 60.496 433.371 61.024 433.515 62.08C433.659 63.136 433.883 64.016 434.187 64.72C434.491 65.408 434.899 65.96 435.411 66.376C435.939 66.792 436.547 67 437.235 67C438.275 67 439.091 66.696 439.683 66.088C440.291 65.464 440.595 64.592 440.595 63.472V60.976C440.595 59.392 440.283 58.096 439.659 57.088C439.051 56.08 437.739 54.608 435.723 52.672C433.339 50.448 431.835 48.704 431.211 47.44C430.587 46.16 430.275 44.856 430.275 43.528V41.872C430.275 39.92 430.907 38.312 432.171 37.048C433.435 35.768 435.083 35.128 437.115 35.128C438.427 35.128 439.555 35.392 440.499 35.92C441.459 36.448 442.203 37.208 442.731 38.2C443.275 39.176 443.627 40.2 443.787 41.272C443.947 42.328 444.027 42.856 444.027 42.856L440.427 43.984C440.427 43.984 440.371 43.6 440.259 42.832C440.163 42.064 439.971 41.336 439.683 40.648C439.411 39.96 439.059 39.464 438.627 39.16C438.195 38.856 437.675 38.704 437.067 38.704C436.155 38.704 435.427 38.968 434.883 39.496C434.339 40.008 434.067 40.72 434.067 41.632V43.048C434.067 44.328 434.371 45.456 434.979 46.432C435.587 47.408 436.891 48.76 438.891 50.488C440.955 52.456 442.387 54.176 443.187 55.648C443.987 57.12 444.387 58.688 444.387 60.352V62.68C444.387 65.224 443.715 67.168 442.371 68.512C441.043 69.84 439.291 70.504 437.115 70.504ZM457.502 70V35.632H461.222V70H457.502ZM475.821 70V35.632H483.357C485.277 35.632 486.869 36.248 488.133 37.48C489.413 38.696 490.053 40.2 490.053 41.992V47.032C490.053 48.296 489.669 49.4 488.901 50.344C488.149 51.288 487.277 51.872 486.285 52.096V52.216C487.597 52.472 488.701 53.136 489.597 54.208C490.493 55.264 490.941 56.52 490.941 57.976V62.368C490.941 64.736 490.245 66.6 488.853 67.96C487.477 69.32 485.781 70 483.765 70H475.821ZM479.541 66.472H483.381C484.501 66.472 485.405 66.088 486.093 65.32C486.781 64.552 487.125 63.568 487.125 62.368V57.976C487.125 56.808 486.797 55.88 486.141 55.192C485.485 54.504 484.605 54.16 483.501 54.16H478.077V50.68H482.973C483.997 50.68 484.805 50.344 485.397 49.672C486.005 48.984 486.309 48.064 486.309 46.912V42.568C486.309 41.544 485.997 40.72 485.373 40.096C484.749 39.472 483.957 39.16 482.997 39.16H479.541V66.472ZM504.312 70V35.632H508.032V70H504.312ZM522.63 70V35.632H526.35V66.472H534.462V70H522.63ZM546.949 70V35.632H550.669V70H546.949ZM568.34 70V37.624H572.084V70H568.34ZM563.084 39.16V35.632H577.34V39.16H563.084ZM594.181 56.608L587.653 35.632H591.661L595.405 48.808L595.981 51.304H596.077L596.605 48.832L600.325 35.632H604.189L597.709 56.584L594.181 56.608ZM594.085 70V54.448H597.805V70H594.085ZM641.635 70.504C638.835 70.504 636.595 69.592 634.915 67.768C633.251 65.944 632.419 63.472 632.419 60.352V45.208C632.419 42.136 633.251 39.688 634.915 37.864C636.595 36.04 638.843 35.128 641.659 35.128C644.459 35.128 646.699 36.04 648.379 37.864C650.059 39.672 650.899 42.12 650.899 45.208V60.352C650.899 63.472 650.051 65.944 648.355 67.768C646.675 69.592 644.435 70.504 641.635 70.504ZM641.659 66.976C643.291 66.976 644.603 66.424 645.595 65.32C646.587 64.2 647.083 62.712 647.083 60.856V44.68C647.083 42.872 646.579 41.416 645.571 40.312C644.563 39.208 643.259 38.656 641.659 38.656C640.027 38.656 638.707 39.208 637.699 40.312C636.707 41.416 636.211 42.872 636.211 44.68V60.856C636.211 62.712 636.707 64.2 637.699 65.32C638.691 66.424 640.011 66.976 641.659 66.976ZM664.793 70V35.632H668.777L677.369 59.608H677.465L677.129 52.912V35.632H680.801V70H677.177L668.225 45.16H668.129L668.441 52.072V70H664.793ZM715.237 70V37.624H718.981V70H715.237ZM709.981 39.16V35.632H724.237V39.16H709.981ZM748.648 70V35.632H752.368V70H748.648ZM736.624 70V35.632H740.344V70H736.624ZM738.664 54.16V50.632H750.496V54.16H738.664ZM766.943 70V35.632H770.663V70H766.943ZM810.072 70.504C807.352 70.504 805.224 69.624 803.688 67.864C802.152 66.104 801.384 63.648 801.384 60.496V45.112C801.384 41.96 802.176 39.512 803.76 37.768C805.36 36.008 807.536 35.128 810.288 35.128C811.776 35.128 813.048 35.408 814.104 35.968C815.176 36.512 816.024 37.24 816.648 38.152C817.272 39.064 817.712 39.944 817.968 40.792C818.224 41.64 818.352 42.096 818.352 42.16C818.352 42.208 818.352 42.232 818.352 42.232L815.016 43.576C815.016 43.576 814.912 43.256 814.704 42.616C814.496 41.976 814.224 41.352 813.888 40.744C813.552 40.136 813.08 39.64 812.472 39.256C811.88 38.872 811.16 38.68 810.312 38.68C808.776 38.68 807.536 39.208 806.592 40.264C805.648 41.304 805.176 42.752 805.176 44.608V61.072C805.176 62.864 805.64 64.296 806.568 65.368C807.496 66.424 808.728 66.952 810.264 66.952C811.144 66.952 811.896 66.728 812.52 66.28C813.16 65.832 813.688 65.248 814.104 64.528C814.52 63.808 814.816 63.064 814.992 62.296C815.168 61.512 815.256 61.12 815.256 61.12L818.592 62.488C818.592 62.488 818.448 63.008 818.16 64.048C817.888 65.072 817.424 66.088 816.768 67.096C816.112 68.104 815.224 68.928 814.104 69.568C813 70.192 811.656 70.504 810.072 70.504ZM829.019 70L835.739 35.632H840.251L846.851 70H843.011L838.427 44.896L837.995 42.232H837.875L837.443 44.896L832.787 70H829.019ZM832.595 60.88L833.267 57.544H842.675L843.323 60.88H832.595ZM859.249 70V35.632H863.521L870.217 63.544H870.313L876.985 35.632H881.257V70H877.657V52.288L877.849 46.816H877.753L871.849 70H868.633L862.753 46.84H862.633L862.849 52.312V70H859.249ZM895.849 70V35.632H902.593C905.025 35.632 906.945 36.328 908.353 37.72C909.761 39.096 910.465 41 910.465 43.432V49C910.465 51.464 909.745 53.424 908.305 54.88C906.881 56.336 904.865 57.064 902.257 57.064H897.793V53.584H902.425C903.769 53.584 904.809 53.2 905.545 52.432C906.281 51.664 906.649 50.568 906.649 49.144V43.504C906.649 42.08 906.297 41 905.593 40.264C904.889 39.512 903.873 39.136 902.545 39.136H899.569V70H895.849ZM930.865 70.504C928.449 70.504 926.561 69.744 925.201 68.224C923.841 66.688 923.161 64.56 923.161 61.84V35.632H926.881V62.2C926.881 63.704 927.233 64.872 927.937 65.704C928.641 66.536 929.625 66.952 930.889 66.952C932.169 66.952 933.161 66.536 933.865 65.704C934.569 64.872 934.921 63.704 934.921 62.2V35.632H938.569V61.84C938.569 64.576 937.889 66.704 936.529 68.224C935.169 69.744 933.281 70.504 930.865 70.504ZM958.59 70.504C957.118 70.504 955.87 70.184 954.846 69.544C953.822 68.904 953.03 68.04 952.47 66.952C951.91 65.848 951.542 64.688 951.366 63.472C951.19 62.24 951.102 61.624 951.102 61.624L954.774 60.496C954.774 60.496 954.846 61.024 954.99 62.08C955.134 63.136 955.358 64.016 955.662 64.72C955.966 65.408 956.374 65.96 956.886 66.376C957.414 66.792 958.022 67 958.71 67C959.75 67 960.566 66.696 961.158 66.088C961.766 65.464 962.07 64.592 962.07 63.472V60.976C962.07 59.392 961.758 58.096 961.134 57.088C960.526 56.08 959.214 54.608 957.198 52.672C954.814 50.448 953.31 48.704 952.686 47.44C952.062 46.16 951.75 44.856 951.75 43.528V41.872C951.75 39.92 952.382 38.312 953.646 37.048C954.91 35.768 956.558 35.128 958.59 35.128C959.902 35.128 961.03 35.392 961.974 35.92C962.934 36.448 963.678 37.208 964.206 38.2C964.75 39.176 965.102 40.2 965.262 41.272C965.422 42.328 965.502 42.856 965.502 42.856L961.902 43.984C961.902 43.984 961.846 43.6 961.734 42.832C961.638 42.064 961.446 41.336 961.158 40.648C960.886 39.96 960.534 39.464 960.102 39.16C959.67 38.856 959.15 38.704 958.542 38.704C957.63 38.704 956.902 38.968 956.358 39.496C955.814 40.008 955.542 40.72 955.542 41.632V43.048C955.542 44.328 955.846 45.456 956.454 46.432C957.062 47.408 958.366 48.76 960.366 50.488C962.43 52.456 963.862 54.176 964.662 55.648C965.462 57.12 965.862 58.688 965.862 60.352V62.68C965.862 65.224 965.19 67.168 963.846 68.512C962.518 69.84 960.766 70.504 958.59 70.504Z" fill="#BBBBBB"/>
</svg>
