<svg width="709" height="296" viewBox="0 0 709 296" fill="none" xmlns="http://www.w3.org/2000/svg">
<path d="M73.625 41.25H62.8125V111.438H73.625V87.625H111.375V102.938C111.375 106.188 110.896 109.125 109.938 111.75C108.979 114.333 107.729 116.5 106.188 118.25C104.688 120 102.771 121.521 100.438 122.812C98.1042 124.104 95.75 125.104 93.375 125.812C91.0417 126.521 88.3333 127.083 85.25 127.5C82.1667 127.917 79.375 128.188 76.875 128.312C74.4167 128.438 71.625 128.5 68.5 128.5C65.625 128.5 63 128.438 60.625 128.312C58.25 128.229 55.5 127.979 52.375 127.562C49.2917 127.146 46.5417 126.583 44.125 125.875C41.7083 125.167 39.25 124.167 36.75 122.875C34.25 121.583 32.1875 120.062 30.5625 118.312C28.9375 116.562 27.6042 114.375 26.5625 111.75C25.5208 109.125 25 106.167 25 102.875V49.375C25 46.1667 25.4792 43.2708 26.4375 40.6875C27.4375 38.0625 28.7083 35.875 30.25 34.125C31.8333 32.375 33.8125 30.8542 36.1875 29.5625C38.5625 28.2292 40.9375 27.2083 43.3125 26.5C45.7292 25.7917 48.4792 25.2292 51.5625 24.8125C54.6458 24.3542 57.4375 24.0625 59.9375 23.9375C62.4792 23.8125 65.2708 23.75 68.3125 23.75C71.5625 23.75 74.4375 23.8125 76.9375 23.9375C79.4375 24.0208 82.25 24.2708 85.375 24.6875C88.5417 25.1042 91.2708 25.6667 93.5625 26.375C95.8958 27.0417 98.2292 28.0208 100.562 29.3125C102.938 30.6042 104.854 32.125 106.312 33.875C107.812 35.625 109.021 37.8125 109.938 40.4375C110.896 43.0625 111.375 46.0208 111.375 49.3125V64.8125H73.625V41.25ZM120.75 126V26.3125H158.5V110.938H179.812V126H120.75ZM225.5 26.3125V126H187.75V26.3125H225.5ZM314 66.125L304.188 126.062H277.5L268.438 66.125H267.562L264.062 126H235.25L240.5 26.3125H282.375L290.312 84.0625H291.125L299.062 26.3125H341L346.25 126H318.375L314.875 66.125H314ZM393.75 66.5625H404.562V41.125H393.75V66.5625ZM393.75 111.312H404.562V77.875H393.75V111.312ZM418.875 71.4375V72.25C423.542 72.7917 427.479 73.8542 430.688 75.4375C433.938 76.9792 436.396 78.9375 438.062 81.3125C439.729 83.6458 440.896 86.1042 441.562 88.6875C442.271 91.2292 442.625 94.0833 442.625 97.25C442.625 103.042 442.021 107.792 440.812 111.5C439.604 115.167 437.562 118.083 434.688 120.25C431.854 122.417 428.396 123.917 424.312 124.75C420.229 125.583 415.021 126 408.688 126H356V26.3125H408.938C411.479 26.3125 413.771 26.3958 415.812 26.5625C417.854 26.6875 419.979 26.9583 422.188 27.375C424.396 27.7917 426.333 28.3542 428 29.0625C429.708 29.7292 431.333 30.6667 432.875 31.875C434.458 33.0417 435.75 34.4375 436.75 36.0625C437.75 37.6875 438.542 39.6667 439.125 42C439.75 44.2917 440.062 46.8958 440.062 49.8125C440.062 56.4375 438.5 61.5 435.375 65C432.292 68.4583 426.792 70.6042 418.875 71.4375ZM488.375 26.3125V126H450.625V26.3125H488.375ZM553.188 126L527.875 81.5625V126H499.875V26.3125H532.188L559.125 73.875V26.3125H586.875V126H553.188ZM648.938 118.25C644.771 125.042 637.458 128.438 627 128.438C622.917 128.438 619.125 127.938 615.625 126.938C612.167 125.938 609.062 124.458 606.312 122.5C603.604 120.542 601.479 117.938 599.938 114.688C598.396 111.438 597.625 107.729 597.625 103.562V49.25C597.625 46 598.104 43.0833 599.062 40.5C600.021 37.875 601.271 35.6875 602.812 33.9375C604.396 32.1875 606.375 30.6875 608.75 29.4375C611.125 28.1458 613.5 27.1458 615.875 26.4375C618.25 25.7292 620.979 25.1667 624.062 24.75C627.188 24.3333 629.979 24.0625 632.438 23.9375C634.938 23.8125 637.75 23.75 640.875 23.75C643.542 23.75 646.083 23.8333 648.5 24C650.917 24.125 653.625 24.4167 656.625 24.875C659.625 25.2917 662.354 25.875 664.812 26.625C667.271 27.3333 669.729 28.3542 672.188 29.6875C674.646 30.9792 676.708 32.5 678.375 34.25C680.042 35.9583 681.396 38.1042 682.438 40.6875C683.479 43.2708 684 46.1458 684 49.3125V64.8125H646.188V41.125H635.375V111.312H646.188V92.375H640.875V77.9375H684V126H653.562L648.938 118.25ZM73.625 169.25H62.8125V239.438H73.625V215.625H111.375V230.938C111.375 234.188 110.896 237.125 109.938 239.75C108.979 242.333 107.729 244.5 106.188 246.25C104.688 248 102.771 249.521 100.438 250.812C98.1042 252.104 95.75 253.104 93.375 253.812C91.0417 254.521 88.3333 255.083 85.25 255.5C82.1667 255.917 79.375 256.188 76.875 256.312C74.4167 256.438 71.625 256.5 68.5 256.5C65.625 256.5 63 256.438 60.625 256.312C58.25 256.229 55.5 255.979 52.375 255.562C49.2917 255.146 46.5417 254.583 44.125 253.875C41.7083 253.167 39.25 252.167 36.75 250.875C34.25 249.583 32.1875 248.062 30.5625 246.312C28.9375 244.562 27.6042 242.375 26.5625 239.75C25.5208 237.125 25 234.167 25 230.875V177.375C25 174.167 25.4792 171.271 26.4375 168.688C27.4375 166.062 28.7083 163.875 30.25 162.125C31.8333 160.375 33.8125 158.854 36.1875 157.562C38.5625 156.229 40.9375 155.208 43.3125 154.5C45.7292 153.792 48.4792 153.229 51.5625 152.812C54.6458 152.354 57.4375 152.062 59.9375 151.938C62.4792 151.812 65.2708 151.75 68.3125 151.75C71.5625 151.75 74.4375 151.812 76.9375 151.938C79.4375 152.021 82.25 152.271 85.375 152.688C88.5417 153.104 91.2708 153.667 93.5625 154.375C95.8958 155.042 98.2292 156.021 100.562 157.312C102.938 158.604 104.854 160.125 106.312 161.875C107.812 163.625 109.021 165.812 109.938 168.438C110.896 171.062 111.375 174.021 111.375 177.312V192.812H73.625V169.25ZM163.875 173.812H162.688L157.875 218H169L163.875 173.812ZM156.75 231.125L153.312 254H116.688L134.938 154.312H191.625L210.188 254H173.5L170.125 231.125H156.75ZM294.625 194.125L284.812 254.062H258.125L249.062 194.125H248.188L244.688 254H215.875L221.125 154.312H263L270.938 212.062H271.75L279.688 154.312H321.625L326.875 254H299L295.5 194.125H294.625ZM374.312 214.75H385.125V168.875H374.312V214.75ZM336.625 154.312H383.812C386.979 154.312 389.792 154.375 392.25 154.5C394.708 154.625 397.354 154.896 400.188 155.312C403.021 155.688 405.479 156.229 407.562 156.938C409.646 157.646 411.688 158.625 413.688 159.875C415.729 161.083 417.375 162.542 418.625 164.25C419.917 165.917 420.958 167.979 421.75 170.438C422.542 172.896 422.938 175.667 422.938 178.75V204.438C422.938 206.938 422.688 209.229 422.188 211.312C421.729 213.354 421.083 215.167 420.25 216.75C419.458 218.292 418.396 219.688 417.062 220.938C415.771 222.146 414.438 223.167 413.062 224C411.688 224.833 410.042 225.562 408.125 226.188C406.208 226.812 404.375 227.292 402.625 227.625C400.917 227.958 398.896 228.229 396.562 228.438C394.271 228.604 392.188 228.729 390.312 228.812C388.479 228.854 386.333 228.875 383.875 228.875H374.375V254H336.625V154.312ZM469.562 239.375H480.375V154.375H518.188V230.875C518.188 234.125 517.688 237.062 516.688 239.688C515.729 242.271 514.479 244.438 512.938 246.188C511.396 247.938 509.417 249.458 507 250.75C504.625 252.042 502.25 253.042 499.875 253.75C497.5 254.458 494.75 255.021 491.625 255.438C488.542 255.854 485.75 256.125 483.25 256.25C480.75 256.375 477.958 256.438 474.875 256.438C472 256.438 469.375 256.375 467 256.25C464.625 256.167 461.896 255.917 458.812 255.5C455.729 255.083 452.979 254.521 450.562 253.812C448.188 253.104 445.771 252.104 443.312 250.812C440.896 249.521 438.875 248 437.25 246.25C435.667 244.5 434.354 242.312 433.312 239.688C432.312 237.021 431.812 234.062 431.812 230.812V154.312H469.562V239.375ZM563 183.688L563.188 183.812C563.188 184.062 563.229 184.312 563.312 184.562C563.438 184.812 563.604 185.042 563.812 185.25C564.062 185.417 564.292 185.583 564.5 185.75C564.75 185.875 565.062 186.021 565.438 186.188C565.854 186.312 566.188 186.417 566.438 186.5C566.729 186.583 567.104 186.688 567.562 186.812C568.062 186.896 568.438 186.958 568.688 187C568.938 187.042 569.312 187.104 569.812 187.188C570.312 187.271 570.646 187.333 570.812 187.375C580.188 189.042 586.917 190.583 591 192C600.208 195.167 606.312 200.167 609.312 207C610.979 210.708 611.812 215.083 611.812 220.125C611.812 227.333 611.021 233.271 609.438 237.938C607.896 242.604 605.333 246.312 601.75 249.062C598.208 251.812 593.875 253.729 588.75 254.812C583.667 255.896 577.229 256.438 569.438 256.438C566.604 256.438 564.062 256.375 561.812 256.25C559.562 256.167 556.979 255.938 554.062 255.562C551.188 255.188 548.646 254.667 546.438 254C544.229 253.333 541.958 252.396 539.625 251.188C537.333 249.979 535.396 248.562 533.812 246.938C532.271 245.271 530.938 243.208 529.812 240.75C528.688 238.292 527.979 235.521 527.688 232.438C527.438 229.604 527.312 226.625 527.312 223.5H563.125V239.312H573.938V223.688C573.938 222.896 573.729 222.208 573.312 221.625C572.896 221 572.229 220.458 571.312 220C570.396 219.5 569.667 219.146 569.125 218.938C568.583 218.729 567.729 218.438 566.562 218.062C565.188 217.604 563.396 217.062 561.188 216.438C558.979 215.771 557.104 215.208 555.562 214.75C554.062 214.292 552.271 213.708 550.188 213C548.146 212.292 546.396 211.625 544.938 211C543.479 210.333 541.875 209.521 540.125 208.562C538.417 207.562 536.958 206.542 535.75 205.5C534.583 204.417 533.396 203.167 532.188 201.75C530.979 200.292 530.021 198.75 529.312 197.125C528.604 195.458 528.021 193.562 527.562 191.438C527.146 189.312 526.938 187.021 526.938 184.562C526.938 180.729 527.292 177.25 528 174.125C528.708 171 529.688 168.312 530.938 166.062C532.188 163.812 533.771 161.854 535.688 160.188C537.646 158.479 539.708 157.104 541.875 156.062C544.083 155.021 546.604 154.188 549.438 153.562C552.312 152.896 555.167 152.438 558 152.188C560.875 151.938 564.062 151.812 567.562 151.812C571.229 151.812 574.479 151.917 577.312 152.125C580.188 152.292 583.042 152.646 585.875 153.188C588.75 153.688 591.229 154.396 593.312 155.312C595.396 156.188 597.354 157.333 599.188 158.75C601.021 160.167 602.5 161.875 603.625 163.875C604.75 165.833 605.646 168.188 606.312 170.938C606.979 173.688 607.312 176.792 607.312 180.25H573.812V169.125H563V183.688Z" fill="#07151C"/>
</svg>
