<svg width="1023" height="490" viewBox="0 0 1023 490" fill="none" xmlns="http://www.w3.org/2000/svg">
<path d="M120.772 84.4119H109.96V154.599H120.772V130.787H158.522V146.099C158.522 149.349 158.043 152.287 157.085 154.912C156.127 157.495 154.877 159.662 153.335 161.412C151.835 163.162 149.918 164.683 147.585 165.974C145.252 167.266 142.897 168.266 140.522 168.974C138.189 169.683 135.481 170.245 132.397 170.662C129.314 171.079 126.522 171.349 124.022 171.474C121.564 171.599 118.772 171.662 115.647 171.662C112.772 171.662 110.147 171.599 107.772 171.474C105.397 171.391 102.647 171.141 99.5225 170.724C96.4391 170.308 93.6891 169.745 91.2725 169.037C88.8558 168.329 86.3975 167.329 83.8975 166.037C81.3975 164.745 79.335 163.224 77.71 161.474C76.085 159.724 74.7516 157.537 73.71 154.912C72.6683 152.287 72.1475 149.329 72.1475 146.037V92.5369C72.1475 89.3285 72.6266 86.4327 73.585 83.8494C74.585 81.2244 75.8558 79.0369 77.3975 77.2869C78.9808 75.5369 80.96 74.016 83.335 72.7244C85.71 71.391 88.085 70.3702 90.46 69.6619C92.8766 68.9535 95.6266 68.391 98.71 67.9744C101.793 67.516 104.585 67.2244 107.085 67.0994C109.627 66.9744 112.418 66.9119 115.46 66.9119C118.71 66.9119 121.585 66.9744 124.085 67.0994C126.585 67.1827 129.397 67.4327 132.522 67.8494C135.689 68.266 138.418 68.8285 140.71 69.5369C143.043 70.2035 145.377 71.1827 147.71 72.4744C150.085 73.766 152.002 75.2869 153.46 77.0369C154.96 78.7869 156.168 80.9744 157.085 83.5994C158.043 86.2244 158.522 89.1827 158.522 92.4744V107.974H120.772V84.4119ZM167.897 169.162V69.4744H205.647V154.099H226.96V169.162H167.897ZM272.647 69.4744V169.162H234.897V69.4744H272.647ZM361.147 109.287L351.335 169.224H324.647L315.585 109.287H314.71L311.21 169.162H282.397L287.647 69.4744H329.522L337.46 127.224H338.272L346.21 69.4744H388.147L393.397 169.162H365.522L362.022 109.287H361.147ZM440.897 109.724H451.71V84.2869H440.897V109.724ZM440.897 154.474H451.71V121.037H440.897V154.474ZM466.022 114.599V115.412C470.689 115.954 474.627 117.016 477.835 118.599C481.085 120.141 483.543 122.099 485.21 124.474C486.877 126.808 488.043 129.266 488.71 131.849C489.418 134.391 489.772 137.245 489.772 140.412C489.772 146.204 489.168 150.954 487.96 154.662C486.752 158.329 484.71 161.245 481.835 163.412C479.002 165.579 475.543 167.079 471.46 167.912C467.377 168.745 462.168 169.162 455.835 169.162H403.147V69.4744H456.085C458.627 69.4744 460.918 69.5577 462.96 69.7244C465.002 69.8494 467.127 70.1202 469.335 70.5369C471.543 70.9535 473.481 71.516 475.147 72.2244C476.856 72.891 478.481 73.8285 480.022 75.0369C481.606 76.2035 482.897 77.5994 483.897 79.2244C484.897 80.8494 485.689 82.8285 486.272 85.1619C486.897 87.4535 487.21 90.0577 487.21 92.9744C487.21 99.5994 485.647 104.662 482.522 108.162C479.439 111.62 473.939 113.766 466.022 114.599ZM535.522 69.4744V169.162H497.772V69.4744H535.522ZM600.335 169.162L575.022 124.724V169.162H547.022V69.4744H579.335L606.272 117.037V69.4744H634.022V169.162H600.335ZM696.085 161.412C691.918 168.204 684.606 171.599 674.147 171.599C670.064 171.599 666.272 171.099 662.772 170.099C659.314 169.099 656.21 167.62 653.46 165.662C650.752 163.704 648.627 161.099 647.085 157.849C645.543 154.599 644.772 150.891 644.772 146.724V92.4119C644.772 89.1619 645.252 86.2452 646.21 83.6619C647.168 81.0369 648.418 78.8494 649.96 77.0994C651.543 75.3494 653.522 73.8494 655.897 72.5994C658.272 71.3077 660.647 70.3077 663.022 69.5994C665.397 68.891 668.127 68.3285 671.21 67.9119C674.335 67.4952 677.127 67.2244 679.585 67.0994C682.085 66.9744 684.897 66.9119 688.022 66.9119C690.689 66.9119 693.231 66.9952 695.647 67.1619C698.064 67.2869 700.772 67.5785 703.772 68.0369C706.772 68.4535 709.502 69.0369 711.96 69.7869C714.418 70.4952 716.877 71.516 719.335 72.8494C721.793 74.141 723.856 75.6619 725.522 77.4119C727.189 79.1202 728.543 81.266 729.585 83.8494C730.627 86.4327 731.147 89.3077 731.147 92.4744V107.974H693.335V84.2869H682.522V154.474H693.335V135.537H688.022V121.099H731.147V169.162H700.71L696.085 161.412ZM120.772 212.412H109.96V282.599H120.772V258.787H158.522V274.099C158.522 277.349 158.043 280.287 157.085 282.912C156.127 285.495 154.877 287.662 153.335 289.412C151.835 291.162 149.918 292.683 147.585 293.974C145.252 295.266 142.897 296.266 140.522 296.974C138.189 297.683 135.481 298.245 132.397 298.662C129.314 299.079 126.522 299.349 124.022 299.474C121.564 299.599 118.772 299.662 115.647 299.662C112.772 299.662 110.147 299.599 107.772 299.474C105.397 299.391 102.647 299.141 99.5225 298.724C96.4391 298.308 93.6891 297.745 91.2725 297.037C88.8558 296.329 86.3975 295.329 83.8975 294.037C81.3975 292.745 79.335 291.224 77.71 289.474C76.085 287.724 74.7516 285.537 73.71 282.912C72.6683 280.287 72.1475 277.329 72.1475 274.037V220.537C72.1475 217.329 72.6266 214.433 73.585 211.849C74.585 209.224 75.8558 207.037 77.3975 205.287C78.9808 203.537 80.96 202.016 83.335 200.724C85.71 199.391 88.085 198.37 90.46 197.662C92.8766 196.954 95.6266 196.391 98.71 195.974C101.793 195.516 104.585 195.224 107.085 195.099C109.627 194.974 112.418 194.912 115.46 194.912C118.71 194.912 121.585 194.974 124.085 195.099C126.585 195.183 129.397 195.433 132.522 195.849C135.689 196.266 138.418 196.829 140.71 197.537C143.043 198.204 145.377 199.183 147.71 200.474C150.085 201.766 152.002 203.287 153.46 205.037C154.96 206.787 156.168 208.974 157.085 211.599C158.043 214.224 158.522 217.183 158.522 220.474V235.974H120.772V212.412ZM211.022 216.974H209.835L205.022 261.162H216.147L211.022 216.974ZM203.897 274.287L200.46 297.162H163.835L182.085 197.474H238.772L257.335 297.162H220.647L217.272 274.287H203.897ZM341.772 237.287L331.96 297.224H305.272L296.21 237.287H295.335L291.835 297.162H263.022L268.272 197.474H310.147L318.085 255.224H318.897L326.835 197.474H368.772L374.022 297.162H346.147L342.647 237.287H341.772ZM421.46 257.912H432.272V212.037H421.46V257.912ZM383.772 197.474H430.96C434.127 197.474 436.939 197.537 439.397 197.662C441.856 197.787 444.502 198.058 447.335 198.474C450.168 198.849 452.627 199.391 454.71 200.099C456.793 200.808 458.835 201.787 460.835 203.037C462.877 204.245 464.522 205.704 465.772 207.412C467.064 209.079 468.106 211.141 468.897 213.599C469.689 216.058 470.085 218.829 470.085 221.912V247.599C470.085 250.099 469.835 252.391 469.335 254.474C468.877 256.516 468.231 258.329 467.397 259.912C466.606 261.454 465.543 262.849 464.21 264.099C462.918 265.308 461.585 266.329 460.21 267.162C458.835 267.995 457.189 268.724 455.272 269.349C453.356 269.974 451.522 270.454 449.772 270.787C448.064 271.12 446.043 271.391 443.71 271.599C441.418 271.766 439.335 271.891 437.46 271.974C435.627 272.016 433.481 272.037 431.022 272.037H421.522V297.162H383.772V197.474ZM516.71 282.537H527.522V197.537H565.335V274.037C565.335 277.287 564.835 280.224 563.835 282.849C562.877 285.433 561.627 287.599 560.085 289.349C558.543 291.099 556.564 292.62 554.147 293.912C551.772 295.204 549.397 296.204 547.022 296.912C544.647 297.62 541.897 298.183 538.772 298.599C535.689 299.016 532.897 299.287 530.397 299.412C527.897 299.537 525.106 299.599 522.022 299.599C519.147 299.599 516.522 299.537 514.147 299.412C511.772 299.329 509.043 299.079 505.96 298.662C502.877 298.245 500.127 297.683 497.71 296.974C495.335 296.266 492.918 295.266 490.46 293.974C488.043 292.683 486.022 291.162 484.397 289.412C482.814 287.662 481.502 285.474 480.46 282.849C479.46 280.183 478.96 277.224 478.96 273.974V197.474H516.71V282.537ZM610.147 226.849L610.335 226.974C610.335 227.224 610.377 227.474 610.46 227.724C610.585 227.974 610.752 228.204 610.96 228.412C611.21 228.579 611.439 228.745 611.647 228.912C611.897 229.037 612.21 229.183 612.585 229.349C613.002 229.474 613.335 229.579 613.585 229.662C613.877 229.745 614.252 229.849 614.71 229.974C615.21 230.058 615.585 230.12 615.835 230.162C616.085 230.204 616.46 230.266 616.96 230.349C617.46 230.433 617.793 230.495 617.96 230.537C627.335 232.204 634.064 233.745 638.147 235.162C647.356 238.329 653.46 243.329 656.46 250.162C658.127 253.87 658.96 258.245 658.96 263.287C658.96 270.495 658.168 276.433 656.585 281.099C655.043 285.766 652.481 289.474 648.897 292.224C645.356 294.974 641.022 296.891 635.897 297.974C630.814 299.058 624.377 299.599 616.585 299.599C613.752 299.599 611.21 299.537 608.96 299.412C606.71 299.329 604.127 299.099 601.21 298.724C598.335 298.349 595.793 297.829 593.585 297.162C591.377 296.495 589.106 295.558 586.772 294.349C584.481 293.141 582.543 291.724 580.96 290.099C579.418 288.433 578.085 286.37 576.96 283.912C575.835 281.454 575.127 278.683 574.835 275.599C574.585 272.766 574.46 269.787 574.46 266.662H610.272V282.474H621.085V266.849C621.085 266.058 620.877 265.37 620.46 264.787C620.043 264.162 619.377 263.62 618.46 263.162C617.543 262.662 616.814 262.308 616.272 262.099C615.731 261.891 614.877 261.599 613.71 261.224C612.335 260.766 610.543 260.224 608.335 259.599C606.127 258.933 604.252 258.37 602.71 257.912C601.21 257.454 599.418 256.87 597.335 256.162C595.293 255.454 593.543 254.787 592.085 254.162C590.627 253.495 589.022 252.683 587.272 251.724C585.564 250.724 584.106 249.704 582.897 248.662C581.731 247.579 580.543 246.329 579.335 244.912C578.127 243.454 577.168 241.912 576.46 240.287C575.752 238.62 575.168 236.724 574.71 234.599C574.293 232.474 574.085 230.183 574.085 227.724C574.085 223.891 574.439 220.412 575.147 217.287C575.856 214.162 576.835 211.474 578.085 209.224C579.335 206.974 580.918 205.016 582.835 203.349C584.793 201.641 586.856 200.266 589.022 199.224C591.231 198.183 593.752 197.349 596.585 196.724C599.46 196.058 602.314 195.599 605.147 195.349C608.022 195.099 611.21 194.974 614.71 194.974C618.377 194.974 621.627 195.079 624.46 195.287C627.335 195.454 630.189 195.808 633.022 196.349C635.897 196.849 638.377 197.558 640.46 198.474C642.543 199.349 644.502 200.495 646.335 201.912C648.168 203.329 649.647 205.037 650.772 207.037C651.897 208.995 652.793 211.349 653.46 214.099C654.127 216.849 654.46 219.954 654.46 223.412H620.96V212.287H610.147V226.849Z" fill="#07151C"/>
<path d="M739.51 199.061L776.252 172.733L775.466 133.83L809.26 110.843L807.884 66.832L950.92 122.828L941.489 170.769L855.825 171.947L911.428 198.275L903.766 242.286L819.084 243.858L871.74 273.526L866.238 314.393L740.296 237.963L739.51 199.061Z" fill="#07151C"/>
<path d="M42.6298 432.324V397.956H46.9018L53.5498 425.868H53.6698L60.2938 397.956H64.5898V432.324H60.9658V414.612L61.1818 409.14H61.0618L55.2058 432.324H51.9658L46.1338 409.164H46.0138L46.2298 414.636V432.324H42.6298ZM87.6092 432.828C84.8092 432.828 82.5692 431.916 80.8892 430.092C79.2252 428.268 78.3932 425.796 78.3932 422.676V407.532C78.3932 404.46 79.2332 402.012 80.9132 400.188C82.5932 398.364 84.8332 397.452 87.6332 397.452C90.4332 397.452 92.6732 398.364 94.3532 400.188C96.0332 401.996 96.8732 404.444 96.8732 407.532V422.676C96.8732 425.796 96.0252 428.268 94.3292 430.092C92.6492 431.916 90.4092 432.828 87.6092 432.828ZM87.6332 429.3C89.2652 429.3 90.5772 428.748 91.5692 427.644C92.5612 426.524 93.0572 425.036 93.0572 423.18V407.004C93.0572 405.196 92.5532 403.74 91.5452 402.636C90.5372 401.532 89.2332 400.98 87.6332 400.98C86.0012 400.98 84.6892 401.532 83.6972 402.636C82.7052 403.74 82.2092 405.196 82.2092 407.004V423.18C82.2092 425.036 82.6972 426.524 83.6732 427.644C84.6652 428.748 85.9852 429.3 87.6332 429.3ZM110.72 432.324V397.956H118.112C120.032 397.956 121.624 398.572 122.888 399.804C124.168 401.02 124.808 402.524 124.808 404.316V409.356C124.808 410.62 124.432 411.724 123.68 412.668C122.928 413.612 122.056 414.196 121.064 414.42V414.54C122.376 414.796 123.472 415.46 124.352 416.532C125.248 417.588 125.696 418.844 125.696 420.3V424.692C125.696 427.06 125.008 428.924 123.632 430.284C122.256 431.644 120.552 432.324 118.52 432.324H110.72ZM114.44 428.796H118.16C119.264 428.796 120.16 428.412 120.848 427.644C121.552 426.876 121.904 425.892 121.904 424.692V420.3C121.904 419.132 121.568 418.204 120.896 417.516C120.24 416.828 119.36 416.484 118.256 416.484H112.976V413.004H117.728C118.752 413.004 119.56 412.668 120.152 411.996C120.76 411.308 121.064 410.388 121.064 409.236V404.892C121.064 403.868 120.752 403.044 120.128 402.42C119.52 401.796 118.728 401.484 117.752 401.484H114.44V428.796ZM139.024 432.324V397.956H142.744V432.324H139.024ZM157.295 432.324V397.956H161.015V428.796H169.031V432.324H157.295ZM181.474 432.324V397.956H185.194V432.324H181.474ZM202.721 432.324V399.948H206.465V432.324H202.721ZM197.561 401.484V397.956H211.601V401.484H197.561ZM228.424 418.932L221.92 397.956H225.904L229.672 411.132L230.224 413.628H230.32L230.872 411.156L234.568 397.956H238.432C238.448 397.956 238.448 397.956 238.432 397.956L231.952 418.908L228.424 418.932ZM228.328 432.324V416.772H232.072V432.324H228.328ZM279.553 432.852L269.593 411.204C269.017 409.892 268.593 408.748 268.321 407.772C268.065 406.796 267.937 405.86 267.937 404.964V403.38C267.937 401.604 268.441 400.172 269.449 399.084C270.457 397.996 271.825 397.452 273.553 397.452C275.249 397.452 276.545 397.996 277.441 399.084C278.353 400.156 278.961 401.78 279.265 403.956L275.881 405.06C275.689 403.652 275.417 402.652 275.065 402.06C274.713 401.468 274.217 401.172 273.577 401.172C272.953 401.172 272.473 401.388 272.137 401.82C271.801 402.252 271.633 402.868 271.633 403.668V404.7C271.633 405.5 271.745 406.324 271.969 407.172C272.193 408.02 272.473 408.836 272.809 409.62L282.769 431.316L279.553 432.852ZM283.417 418.62C282.937 423.356 281.809 426.916 280.033 429.3C278.273 431.668 276.057 432.852 273.385 432.852C271.033 432.852 269.145 432.14 267.721 430.716C266.297 429.276 265.585 427.204 265.585 424.5V420.804C265.585 418.612 266.041 416.676 266.953 414.996C267.865 413.3 269.217 411.956 271.009 410.964L272.641 414.684C271.569 415.196 270.753 415.908 270.193 416.82C269.649 417.716 269.377 419.124 269.377 421.044V424.188C269.377 425.932 269.753 427.228 270.505 428.076C271.273 428.908 272.337 429.324 273.697 429.324C275.457 429.324 276.865 428.388 277.921 426.516C278.993 424.644 279.729 421.668 280.129 417.588L283.417 418.62ZM310.483 432.324L317.179 397.956H321.667L328.219 432.324H324.379L319.843 407.22L319.411 404.556H319.291L318.859 407.22L314.227 432.324H310.483ZM314.011 423.204L314.683 419.868H324.091L324.739 423.204H314.011ZM347.628 432.828C344.924 432.828 342.788 431.94 341.22 430.164C339.652 428.388 338.868 425.94 338.868 422.82V407.436C338.868 404.3 339.668 401.852 341.268 400.092C342.884 398.332 345.06 397.452 347.796 397.452C349.252 397.452 350.508 397.724 351.564 398.268C352.636 398.812 353.492 399.548 354.132 400.476C354.788 401.404 355.348 402.764 355.812 404.556L352.476 405.9C352.06 404.46 351.676 403.46 351.324 402.9C350.988 402.324 350.532 401.868 349.956 401.532C349.396 401.18 348.708 401.004 347.892 401.004C346.34 401.004 345.084 401.532 344.124 402.588C343.164 403.628 342.684 405.068 342.684 406.908V423.372C342.684 425.18 343.148 426.62 344.076 427.692C345.02 428.748 346.26 429.276 347.796 429.276C348.692 429.276 349.444 429.06 350.052 428.628C350.676 428.18 351.188 427.604 351.588 426.9C351.988 426.196 352.372 425.052 352.74 423.468L356.052 424.86C355.54 426.956 354.948 428.5 354.276 429.492C353.604 430.468 352.724 431.268 351.636 431.892C350.548 432.516 349.212 432.828 347.628 432.828ZM376.588 432.828C373.884 432.828 371.748 431.94 370.18 430.164C368.612 428.388 367.828 425.94 367.828 422.82V407.436C367.828 404.3 368.628 401.852 370.228 400.092C371.844 398.332 374.02 397.452 376.756 397.452C378.212 397.452 379.468 397.724 380.524 398.268C381.596 398.812 382.452 399.548 383.092 400.476C383.748 401.404 384.308 402.764 384.772 404.556L381.436 405.9C381.02 404.46 380.636 403.46 380.284 402.9C379.948 402.324 379.492 401.868 378.916 401.532C378.356 401.18 377.668 401.004 376.852 401.004C375.3 401.004 374.044 401.532 373.084 402.588C372.124 403.628 371.644 405.068 371.644 406.908V423.372C371.644 425.18 372.108 426.62 373.036 427.692C373.98 428.748 375.22 429.276 376.756 429.276C377.652 429.276 378.404 429.06 379.012 428.628C379.636 428.18 380.148 427.604 380.548 426.9C380.948 426.196 381.332 425.052 381.7 423.468L385.012 424.86C384.5 426.956 383.908 428.5 383.236 429.492C382.564 430.468 381.684 431.268 380.596 431.892C379.508 432.516 378.172 432.828 376.588 432.828ZM397.717 432.324V397.956H410.605V401.484H401.437V428.796H410.677V432.324H397.717ZM399.685 416.556V413.1H409.309V416.556H399.685ZM429.484 432.828C427.276 432.828 425.548 432.108 424.3 430.668C423.068 429.228 422.3 426.988 421.996 423.948L425.692 422.844C425.932 425.148 426.364 426.804 426.988 427.812C427.612 428.804 428.476 429.3 429.58 429.3C430.588 429.3 431.388 428.996 431.98 428.388C432.588 427.78 432.892 426.924 432.892 425.82V423.3C432.892 421.748 432.58 420.468 431.956 419.46C431.348 418.436 430.044 416.956 428.044 415.02C425.692 412.78 424.196 411.036 423.556 409.788C422.932 408.524 422.62 407.236 422.62 405.924V404.292C422.62 402.276 423.252 400.636 424.516 399.372C425.796 398.092 427.428 397.452 429.412 397.452C431.284 397.452 432.82 398.02 434.02 399.156C435.22 400.292 435.972 402.3 436.276 405.18L432.7 406.308C432.492 404.484 432.132 403.148 431.62 402.3C431.108 401.452 430.348 401.028 429.34 401.028C428.492 401.028 427.788 401.3 427.228 401.844C426.684 402.372 426.412 403.1 426.412 404.028V405.444C426.412 406.708 426.716 407.828 427.324 408.804C427.948 409.78 429.244 411.124 431.212 412.836C433.292 414.804 434.724 416.524 435.508 417.996C436.292 419.468 436.684 421.036 436.684 422.7V425.028C436.684 427.572 436.004 429.508 434.644 430.836C433.284 432.164 431.564 432.828 429.484 432.828ZM455.537 432.828C453.329 432.828 451.601 432.108 450.353 430.668C449.121 429.228 448.353 426.988 448.049 423.948L451.745 422.844C451.985 425.148 452.417 426.804 453.041 427.812C453.665 428.804 454.529 429.3 455.633 429.3C456.641 429.3 457.441 428.996 458.033 428.388C458.641 427.78 458.945 426.924 458.945 425.82V423.3C458.945 421.748 458.633 420.468 458.009 419.46C457.401 418.436 456.097 416.956 454.097 415.02C451.745 412.78 450.249 411.036 449.609 409.788C448.985 408.524 448.673 407.236 448.673 405.924V404.292C448.673 402.276 449.305 400.636 450.569 399.372C451.849 398.092 453.481 397.452 455.465 397.452C457.337 397.452 458.873 398.02 460.073 399.156C461.273 400.292 462.025 402.3 462.329 405.18L458.753 406.308C458.545 404.484 458.185 403.148 457.673 402.3C457.161 401.452 456.401 401.028 455.393 401.028C454.545 401.028 453.841 401.3 453.281 401.844C452.737 402.372 452.465 403.1 452.465 404.028V405.444C452.465 406.708 452.769 407.828 453.377 408.804C454.001 409.78 455.297 411.124 457.265 412.836C459.345 414.804 460.777 416.524 461.561 417.996C462.345 419.468 462.737 421.036 462.737 422.7V425.028C462.737 427.572 462.057 429.508 460.697 430.836C459.337 432.164 457.617 432.828 455.537 432.828ZM475.83 432.324V397.956H479.55V432.324H475.83ZM494.102 432.324V397.956H501.494C503.414 397.956 505.006 398.572 506.27 399.804C507.55 401.02 508.19 402.524 508.19 404.316V409.356C508.19 410.62 507.814 411.724 507.062 412.668C506.31 413.612 505.438 414.196 504.446 414.42V414.54C505.758 414.796 506.854 415.46 507.734 416.532C508.63 417.588 509.078 418.844 509.078 420.3V424.692C509.078 427.06 508.39 428.924 507.014 430.284C505.638 431.644 503.934 432.324 501.902 432.324H494.102ZM497.822 428.796H501.542C502.646 428.796 503.542 428.412 504.23 427.644C504.934 426.876 505.286 425.892 505.286 424.692V420.3C505.286 419.132 504.95 418.204 504.278 417.516C503.622 416.828 502.742 416.484 501.638 416.484H496.358V413.004H501.11C502.134 413.004 502.942 412.668 503.534 411.996C504.142 411.308 504.446 410.388 504.446 409.236V404.892C504.446 403.868 504.134 403.044 503.51 402.42C502.902 401.796 502.11 401.484 501.134 401.484H497.822V428.796ZM522.405 432.324V397.956H526.125V432.324H522.405ZM540.677 432.324V397.956H544.397V428.796H552.413V432.324H540.677ZM564.855 432.324V397.956H568.575V432.324H564.855ZM586.103 432.324V399.948H589.847V432.324H586.103ZM580.943 401.484V397.956H594.983V401.484H580.943ZM611.806 418.932L605.302 397.956H609.286L613.054 411.132L613.606 413.628H613.702L614.254 411.156L617.95 397.956H621.814C621.83 397.956 621.83 397.956 621.814 397.956L615.334 418.908L611.806 418.932ZM611.71 432.324V416.772H615.454V432.324H611.71ZM659.119 432.828C656.319 432.828 654.079 431.916 652.399 430.092C650.735 428.268 649.903 425.796 649.903 422.676V407.532C649.903 404.46 650.743 402.012 652.423 400.188C654.103 398.364 656.343 397.452 659.143 397.452C661.943 397.452 664.183 398.364 665.863 400.188C667.543 401.996 668.383 404.444 668.383 407.532V422.676C668.383 425.796 667.535 428.268 665.839 430.092C664.159 431.916 661.919 432.828 659.119 432.828ZM659.143 429.3C660.775 429.3 662.087 428.748 663.079 427.644C664.071 426.524 664.567 425.036 664.567 423.18V407.004C664.567 405.196 664.063 403.74 663.055 402.636C662.047 401.532 660.743 400.98 659.143 400.98C657.511 400.98 656.199 401.532 655.207 402.636C654.215 403.74 653.719 405.196 653.719 407.004V423.18C653.719 425.036 654.207 426.524 655.183 427.644C656.175 428.748 657.495 429.3 659.143 429.3ZM682.23 432.324V397.956H686.214L694.734 421.932H694.83L694.518 415.236V397.956H698.166V432.324H694.542L685.662 407.484H685.566L685.878 414.396V432.324H682.23ZM732.39 432.324V399.948H736.134V432.324H732.39ZM727.23 401.484V397.956H741.27V401.484H727.23ZM765.567 432.324V397.956H769.311V432.324H765.567ZM753.639 432.324V397.956H757.359V432.324H753.639ZM755.679 416.484V412.956H767.415V416.484H755.679ZM783.817 432.324V397.956H787.537V432.324H783.817ZM826.878 432.828C824.174 432.828 822.038 431.94 820.47 430.164C818.902 428.388 818.118 425.94 818.118 422.82V407.436C818.118 404.3 818.918 401.852 820.518 400.092C822.134 398.332 824.31 397.452 827.046 397.452C828.502 397.452 829.758 397.724 830.814 398.268C831.886 398.812 832.742 399.548 833.382 400.476C834.038 401.404 834.598 402.764 835.062 404.556L831.726 405.9C831.31 404.46 830.926 403.46 830.574 402.9C830.238 402.324 829.782 401.868 829.206 401.532C828.646 401.18 827.958 401.004 827.142 401.004C825.59 401.004 824.334 401.532 823.374 402.588C822.414 403.628 821.934 405.068 821.934 406.908V423.372C821.934 425.18 822.398 426.62 823.326 427.692C824.27 428.748 825.51 429.276 827.046 429.276C827.942 429.276 828.694 429.06 829.302 428.628C829.926 428.18 830.438 427.604 830.838 426.9C831.238 426.196 831.622 425.052 831.99 423.468L835.302 424.86C834.79 426.956 834.198 428.5 833.526 429.492C832.854 430.468 831.974 431.268 830.886 431.892C829.798 432.516 828.462 432.828 826.878 432.828ZM845.73 432.324L852.426 397.956H856.914L863.466 432.324H859.626L855.09 407.22L854.658 404.556H854.538L854.106 407.22L849.474 432.324H845.73ZM849.258 423.204L849.93 419.868H859.338L859.986 423.204H849.258ZM875.842 432.324V397.956H880.114L886.762 425.868H886.882L893.506 397.956H897.802V432.324H894.178V414.612L894.394 409.14H894.274L888.418 432.324H885.178L879.346 409.164H879.226L879.442 414.636V432.324H875.842ZM912.302 432.324V397.956H918.95C921.382 397.956 923.302 398.652 924.71 400.044C926.134 401.42 926.846 403.308 926.846 405.708V411.3C926.846 413.732 926.126 415.676 924.686 417.132C923.246 418.588 921.23 419.316 918.638 419.316H914.246V415.86H918.806C920.134 415.86 921.166 415.468 921.902 414.684C922.654 413.9 923.03 412.82 923.03 411.444V405.804C923.03 404.412 922.678 403.34 921.974 402.588C921.286 401.836 920.286 401.46 918.974 401.46H916.022V432.324H912.302ZM947.057 432.828C944.657 432.828 942.785 432.068 941.441 430.548C940.113 429.012 939.449 426.868 939.449 424.116V397.956H943.193V424.572C943.193 426.076 943.529 427.236 944.201 428.052C944.889 428.868 945.849 429.276 947.081 429.276C948.345 429.276 949.313 428.868 949.985 428.052C950.673 427.236 951.017 426.076 951.017 424.572V397.956H954.641V424.116C954.641 426.884 953.977 429.028 952.649 430.548C951.321 432.068 949.457 432.828 947.057 432.828ZM974.621 432.828C972.413 432.828 970.685 432.108 969.437 430.668C968.205 429.228 967.437 426.988 967.133 423.948L970.829 422.844C971.069 425.148 971.501 426.804 972.125 427.812C972.749 428.804 973.613 429.3 974.717 429.3C975.725 429.3 976.525 428.996 977.117 428.388C977.725 427.78 978.029 426.924 978.029 425.82V423.3C978.029 421.748 977.717 420.468 977.093 419.46C976.485 418.436 975.181 416.956 973.181 415.02C970.829 412.78 969.333 411.036 968.693 409.788C968.069 408.524 967.757 407.236 967.757 405.924V404.292C967.757 402.276 968.389 400.636 969.653 399.372C970.933 398.092 972.565 397.452 974.549 397.452C976.421 397.452 977.957 398.02 979.157 399.156C980.357 400.292 981.109 402.3 981.413 405.18L977.837 406.308C977.629 404.484 977.269 403.148 976.757 402.3C976.245 401.452 975.485 401.028 974.477 401.028C973.629 401.028 972.925 401.3 972.365 401.844C971.821 402.372 971.549 403.1 971.549 404.028V405.444C971.549 406.708 971.853 407.828 972.461 408.804C973.085 409.78 974.381 411.124 976.349 412.836C978.429 414.804 979.861 416.524 980.645 417.996C981.429 419.468 981.821 421.036 981.821 422.7V425.028C981.821 427.572 981.141 429.508 979.781 430.836C978.421 432.164 976.701 432.828 974.621 432.828Z" fill="#666666"/>
</svg>
