<svg width="1030" height="361" viewBox="0 0 1030 361" fill="none" xmlns="http://www.w3.org/2000/svg">
<path d="M93.625 73.75H82.8125V143.938H93.625V120.125H131.375V135.438C131.375 138.688 130.896 141.625 129.938 144.25C128.979 146.833 127.729 149 126.188 150.75C124.688 152.5 122.771 154.021 120.438 155.312C118.104 156.604 115.75 157.604 113.375 158.312C111.042 159.021 108.333 159.583 105.25 160C102.167 160.417 99.375 160.688 96.875 160.812C94.4167 160.938 91.625 161 88.5 161C85.625 161 83 160.938 80.625 160.812C78.25 160.729 75.5 160.479 72.375 160.062C69.2917 159.646 66.5417 159.083 64.125 158.375C61.7083 157.667 59.25 156.667 56.75 155.375C54.25 154.083 52.1875 152.562 50.5625 150.812C48.9375 149.062 47.6042 146.875 46.5625 144.25C45.5208 141.625 45 138.667 45 135.375V81.875C45 78.6667 45.4792 75.7708 46.4375 73.1875C47.4375 70.5625 48.7083 68.375 50.25 66.625C51.8333 64.875 53.8125 63.3542 56.1875 62.0625C58.5625 60.7292 60.9375 59.7083 63.3125 59C65.7292 58.2917 68.4792 57.7292 71.5625 57.3125C74.6458 56.8542 77.4375 56.5625 79.9375 56.4375C82.4792 56.3125 85.2708 56.25 88.3125 56.25C91.5625 56.25 94.4375 56.3125 96.9375 56.4375C99.4375 56.5208 102.25 56.7708 105.375 57.1875C108.542 57.6042 111.271 58.1667 113.562 58.875C115.896 59.5417 118.229 60.5208 120.562 61.8125C122.938 63.1042 124.854 64.625 126.312 66.375C127.812 68.125 129.021 70.3125 129.938 72.9375C130.896 75.5625 131.375 78.5208 131.375 81.8125V97.3125H93.625V73.75ZM140.75 158.5V58.8125H178.5V143.438H199.812V158.5H140.75ZM245.5 58.8125V158.5H207.75V58.8125H245.5ZM334 98.625L324.188 158.562H297.5L288.438 98.625H287.562L284.062 158.5H255.25L260.5 58.8125H302.375L310.312 116.562H311.125L319.062 58.8125H361L366.25 158.5H338.375L334.875 98.625H334ZM413.75 99.0625H424.562V73.625H413.75V99.0625ZM413.75 143.812H424.562V110.375H413.75V143.812ZM438.875 103.938V104.75C443.542 105.292 447.479 106.354 450.688 107.938C453.938 109.479 456.396 111.438 458.062 113.812C459.729 116.146 460.896 118.604 461.562 121.188C462.271 123.729 462.625 126.583 462.625 129.75C462.625 135.542 462.021 140.292 460.812 144C459.604 147.667 457.562 150.583 454.688 152.75C451.854 154.917 448.396 156.417 444.312 157.25C440.229 158.083 435.021 158.5 428.688 158.5H376V58.8125H428.938C431.479 58.8125 433.771 58.8958 435.812 59.0625C437.854 59.1875 439.979 59.4583 442.188 59.875C444.396 60.2917 446.333 60.8542 448 61.5625C449.708 62.2292 451.333 63.1667 452.875 64.375C454.458 65.5417 455.75 66.9375 456.75 68.5625C457.75 70.1875 458.542 72.1667 459.125 74.5C459.75 76.7917 460.062 79.3958 460.062 82.3125C460.062 88.9375 458.5 94 455.375 97.5C452.292 100.958 446.792 103.104 438.875 103.938ZM508.375 58.8125V158.5H470.625V58.8125H508.375ZM573.188 158.5L547.875 114.062V158.5H519.875V58.8125H552.188L579.125 106.375V58.8125H606.875V158.5H573.188ZM668.938 150.75C664.771 157.542 657.458 160.938 647 160.938C642.917 160.938 639.125 160.438 635.625 159.438C632.167 158.438 629.062 156.958 626.312 155C623.604 153.042 621.479 150.438 619.938 147.188C618.396 143.938 617.625 140.229 617.625 136.062V81.75C617.625 78.5 618.104 75.5833 619.062 73C620.021 70.375 621.271 68.1875 622.812 66.4375C624.396 64.6875 626.375 63.1875 628.75 61.9375C631.125 60.6458 633.5 59.6458 635.875 58.9375C638.25 58.2292 640.979 57.6667 644.062 57.25C647.188 56.8333 649.979 56.5625 652.438 56.4375C654.938 56.3125 657.75 56.25 660.875 56.25C663.542 56.25 666.083 56.3333 668.5 56.5C670.917 56.625 673.625 56.9167 676.625 57.375C679.625 57.7917 682.354 58.375 684.812 59.125C687.271 59.8333 689.729 60.8542 692.188 62.1875C694.646 63.4792 696.708 65 698.375 66.75C700.042 68.4583 701.396 70.6042 702.438 73.1875C703.479 75.7708 704 78.6458 704 81.8125V97.3125H666.188V73.625H655.375V143.812H666.188V124.875H660.875V110.438H704V158.5H673.562L668.938 150.75ZM93.625 201.75H82.8125V271.938H93.625V248.125H131.375V263.438C131.375 266.688 130.896 269.625 129.938 272.25C128.979 274.833 127.729 277 126.188 278.75C124.688 280.5 122.771 282.021 120.438 283.312C118.104 284.604 115.75 285.604 113.375 286.312C111.042 287.021 108.333 287.583 105.25 288C102.167 288.417 99.375 288.688 96.875 288.812C94.4167 288.938 91.625 289 88.5 289C85.625 289 83 288.938 80.625 288.812C78.25 288.729 75.5 288.479 72.375 288.062C69.2917 287.646 66.5417 287.083 64.125 286.375C61.7083 285.667 59.25 284.667 56.75 283.375C54.25 282.083 52.1875 280.562 50.5625 278.812C48.9375 277.062 47.6042 274.875 46.5625 272.25C45.5208 269.625 45 266.667 45 263.375V209.875C45 206.667 45.4792 203.771 46.4375 201.188C47.4375 198.562 48.7083 196.375 50.25 194.625C51.8333 192.875 53.8125 191.354 56.1875 190.062C58.5625 188.729 60.9375 187.708 63.3125 187C65.7292 186.292 68.4792 185.729 71.5625 185.312C74.6458 184.854 77.4375 184.562 79.9375 184.438C82.4792 184.312 85.2708 184.25 88.3125 184.25C91.5625 184.25 94.4375 184.312 96.9375 184.438C99.4375 184.521 102.25 184.771 105.375 185.188C108.542 185.604 111.271 186.167 113.562 186.875C115.896 187.542 118.229 188.521 120.562 189.812C122.938 191.104 124.854 192.625 126.312 194.375C127.812 196.125 129.021 198.312 129.938 200.938C130.896 203.562 131.375 206.521 131.375 209.812V225.312H93.625V201.75ZM183.875 206.312H182.688L177.875 250.5H189L183.875 206.312ZM176.75 263.625L173.312 286.5H136.688L154.938 186.812H211.625L230.188 286.5H193.5L190.125 263.625H176.75ZM314.625 226.625L304.812 286.562H278.125L269.062 226.625H268.188L264.688 286.5H235.875L241.125 186.812H283L290.938 244.562H291.75L299.688 186.812H341.625L346.875 286.5H319L315.5 226.625H314.625ZM394.312 247.25H405.125V201.375H394.312V247.25ZM356.625 186.812H403.812C406.979 186.812 409.792 186.875 412.25 187C414.708 187.125 417.354 187.396 420.188 187.812C423.021 188.188 425.479 188.729 427.562 189.438C429.646 190.146 431.688 191.125 433.688 192.375C435.729 193.583 437.375 195.042 438.625 196.75C439.917 198.417 440.958 200.479 441.75 202.938C442.542 205.396 442.938 208.167 442.938 211.25V236.938C442.938 239.438 442.688 241.729 442.188 243.812C441.729 245.854 441.083 247.667 440.25 249.25C439.458 250.792 438.396 252.188 437.062 253.438C435.771 254.646 434.438 255.667 433.062 256.5C431.688 257.333 430.042 258.062 428.125 258.688C426.208 259.312 424.375 259.792 422.625 260.125C420.917 260.458 418.896 260.729 416.562 260.938C414.271 261.104 412.188 261.229 410.312 261.312C408.479 261.354 406.333 261.375 403.875 261.375H394.375V286.5H356.625V186.812ZM489.562 271.875H500.375V186.875H538.188V263.375C538.188 266.625 537.688 269.562 536.688 272.188C535.729 274.771 534.479 276.938 532.938 278.688C531.396 280.438 529.417 281.958 527 283.25C524.625 284.542 522.25 285.542 519.875 286.25C517.5 286.958 514.75 287.521 511.625 287.938C508.542 288.354 505.75 288.625 503.25 288.75C500.75 288.875 497.958 288.938 494.875 288.938C492 288.938 489.375 288.875 487 288.75C484.625 288.667 481.896 288.417 478.812 288C475.729 287.583 472.979 287.021 470.562 286.312C468.188 285.604 465.771 284.604 463.312 283.312C460.896 282.021 458.875 280.5 457.25 278.75C455.667 277 454.354 274.812 453.312 272.188C452.312 269.521 451.812 266.562 451.812 263.312V186.812H489.562V271.875ZM583 216.188L583.188 216.312C583.188 216.562 583.229 216.812 583.312 217.062C583.438 217.312 583.604 217.542 583.812 217.75C584.062 217.917 584.292 218.083 584.5 218.25C584.75 218.375 585.062 218.521 585.438 218.688C585.854 218.812 586.188 218.917 586.438 219C586.729 219.083 587.104 219.188 587.562 219.312C588.062 219.396 588.438 219.458 588.688 219.5C588.938 219.542 589.312 219.604 589.812 219.688C590.312 219.771 590.646 219.833 590.812 219.875C600.188 221.542 606.917 223.083 611 224.5C620.208 227.667 626.312 232.667 629.312 239.5C630.979 243.208 631.812 247.583 631.812 252.625C631.812 259.833 631.021 265.771 629.438 270.438C627.896 275.104 625.333 278.812 621.75 281.562C618.208 284.312 613.875 286.229 608.75 287.312C603.667 288.396 597.229 288.938 589.438 288.938C586.604 288.938 584.062 288.875 581.812 288.75C579.562 288.667 576.979 288.438 574.062 288.062C571.188 287.688 568.646 287.167 566.438 286.5C564.229 285.833 561.958 284.896 559.625 283.688C557.333 282.479 555.396 281.062 553.812 279.438C552.271 277.771 550.938 275.708 549.812 273.25C548.688 270.792 547.979 268.021 547.688 264.938C547.438 262.104 547.312 259.125 547.312 256H583.125V271.812H593.938V256.188C593.938 255.396 593.729 254.708 593.312 254.125C592.896 253.5 592.229 252.958 591.312 252.5C590.396 252 589.667 251.646 589.125 251.438C588.583 251.229 587.729 250.938 586.562 250.562C585.188 250.104 583.396 249.562 581.188 248.938C578.979 248.271 577.104 247.708 575.562 247.25C574.062 246.792 572.271 246.208 570.188 245.5C568.146 244.792 566.396 244.125 564.938 243.5C563.479 242.833 561.875 242.021 560.125 241.062C558.417 240.062 556.958 239.042 555.75 238C554.583 236.917 553.396 235.667 552.188 234.25C550.979 232.792 550.021 231.25 549.312 229.625C548.604 227.958 548.021 226.062 547.562 223.938C547.146 221.812 546.938 219.521 546.938 217.062C546.938 213.229 547.292 209.75 548 206.625C548.708 203.5 549.688 200.812 550.938 198.562C552.188 196.312 553.771 194.354 555.688 192.688C557.646 190.979 559.708 189.604 561.875 188.562C564.083 187.521 566.604 186.688 569.438 186.062C572.312 185.396 575.167 184.938 578 184.688C580.875 184.438 584.062 184.312 587.562 184.312C591.229 184.312 594.479 184.417 597.312 184.625C600.188 184.792 603.042 185.146 605.875 185.688C608.75 186.188 611.229 186.896 613.312 187.812C615.396 188.688 617.354 189.833 619.188 191.25C621.021 192.667 622.5 194.375 623.625 196.375C624.75 198.333 625.646 200.688 626.312 203.438C626.979 206.188 627.312 209.292 627.312 212.75H593.812V201.625H583V216.188Z" fill="#F8F1E6"/>
<path d="M956.797 118.055L813.762 62.0594L845.394 43.9835L985.287 94.4781L955.815 223.564L872.115 309.621L877.617 268.754L824.961 239.086L909.643 237.514L917.305 193.503L861.702 167.175L947.366 165.996L956.797 118.055Z" fill="#F8F1E6"/>
</svg>
